<svg width="33" height="32" viewBox="0 0 33 32" fill="none" xmlns="http://www.w3.org/2000/svg">
<path d="M14.2266 17.8934H18.0132L18.4399 14.1067H14.6532L14.2266 17.8934Z" fill="#4534B8"/>
<path d="M21.92 2.66675H10.7467C5.89333 2.66675 3 5.56008 3 10.4134V21.5734C3 26.4401 5.89333 29.3334 10.7467 29.3334H21.9067C26.76 29.3334 29.6533 26.4401 29.6533 21.5867V10.4134C29.6667 5.56008 26.7733 2.66675 21.92 2.66675ZM25.4267 14.1067H20.4L19.9733 17.9067H24.4667C25 17.9067 25.44 18.3467 25.44 18.8801C25.44 19.4134 25 19.8534 24.4667 19.8534H19.76L19.2133 24.7334C19.16 25.2267 18.7333 25.6001 18.24 25.6001C18.2 25.6001 18.1733 25.6001 18.1333 25.6001C17.6 25.5467 17.2133 25.0534 17.2667 24.5201L17.7867 19.8534H14L13.4533 24.7334C13.4 25.2267 12.9733 25.6001 12.48 25.6001C12.44 25.6001 12.4133 25.6001 12.3733 25.6001C11.84 25.5467 11.4533 25.0534 11.5067 24.5201L12.0267 19.8534H7.24C6.70667 19.8534 6.26667 19.4134 6.26667 18.8801C6.26667 18.3467 6.70667 17.9067 7.24 17.9067H12.2667L12.6933 14.1067H8.2C7.66667 14.1067 7.22667 13.6667 7.22667 13.1334C7.22667 12.6001 7.66667 12.1601 8.2 12.1601H12.9067L13.4533 7.28008C13.5067 6.74675 14 6.36008 14.5333 6.41341C15.0667 6.46675 15.4533 6.96008 15.4 7.49341L14.88 12.1601H18.6667L19.2133 7.28008C19.28 6.74675 19.76 6.36008 20.2933 6.41341C20.8267 6.46675 21.2133 6.96008 21.16 7.49341L20.64 12.1601H25.4533C25.9867 12.1601 26.4267 12.6001 26.4267 13.1334C26.4267 13.6667 25.96 14.1067 25.4267 14.1067Z" fill="#4534B8"/>
</svg>
