<svg width="272" height="41" viewBox="0 0 272 41" fill="none" xmlns="http://www.w3.org/2000/svg">
<rect x="24" y="0.226562" width="40" height="40" rx="12" fill="#ECEBF8"/>
<path d="M43.1276 11.8407C43.2546 11.6501 43.5088 11.4171 43.6782 11.3324C43.8583 11.2477 44.1548 11.2053 44.3242 11.2371C44.5042 11.2689 44.7584 11.3748 44.9067 11.4913C45.0549 11.5972 45.2349 11.7984 45.2985 11.936C45.3895 12.108 45.4323 12.7729 45.4359 15.9157C45.4362 16.2065 45.3166 16.4865 45.1055 16.6865L44.6313 17.1357C44.1865 17.5592 43.6359 18.1735 43.4241 18.4912C43.2587 18.7274 43.0407 19.1216 42.7482 19.7915C42.5887 20.1568 42.1049 20.2464 41.8356 19.9526C41.0296 19.0594 40.0584 18.65 38.8704 18.65C37.7619 18.65 36.7513 19.0143 35.99 19.8572C34.8569 21.0323 34.5055 22.825 35.2381 24.3156C35.4182 24.6968 35.7782 25.2157 36.0324 25.4699C37.1884 26.6259 39.1502 27.0273 40.6178 26.2535C42.108 25.4858 42.7562 24.1274 42.8946 22.5365C42.9581 21.8481 43.1064 21.0115 43.2652 20.5244C43.4029 20.0796 43.71 19.4231 43.9324 19.0736C44.1548 18.7241 44.6525 18.1523 45.0231 17.8028C45.4256 17.411 46.0186 17.0086 46.4951 16.765C46.9293 16.5532 47.5753 16.2991 47.9248 16.2143C48.2742 16.1296 48.9626 16.0555 49.4603 16.0555C49.958 16.0555 50.6569 16.1296 51.0276 16.2143C51.3876 16.2991 51.9065 16.4791 52.1925 16.6168C52.7852 16.8903 53.4844 16.5046 53.4844 15.8518V14.8059C53.4844 12.6244 53.5056 12.2431 53.675 11.9255C53.7915 11.6925 54.0033 11.4807 54.2787 11.3536C54.8769 11.0721 55.348 11.3348 55.749 11.7441C55.9538 11.9531 56.046 12.2441 56.044 12.5368L56.0048 18.0676C55.973 23.8284 55.9625 24.072 55.7507 24.6333C55.4196 25.4609 55.0373 26.2158 54.4693 26.9101C54.1834 27.2701 53.6115 27.7784 53.1667 28.075C51.1427 29.4079 48.5323 29.5433 46.3892 28.4456C46.0648 28.2715 45.6695 28.0088 45.1944 27.5955C44.8889 27.3298 44.8438 26.8782 45.0655 26.5394C45.2773 26.2217 45.5526 25.6817 45.6797 25.3428C45.7343 25.1971 45.787 25.0632 45.831 24.9587C45.8947 24.8072 46.0088 24.7955 46.1244 24.9124C46.2303 25.0197 46.3733 25.168 46.5269 25.3322C46.8764 25.7134 47.3211 26.0417 47.7659 26.2535C48.777 26.7505 50.1832 26.7816 51.197 26.2747C51.5359 26.0947 52.0336 25.7452 52.2984 25.4804C53.8309 23.9479 53.8214 21.2956 52.2984 19.7725C50.6958 18.17 48.0004 18.2929 46.5163 19.942C46.1668 20.3232 45.8703 20.7786 45.7327 21.1386C45.6162 21.4775 45.4785 22.1976 45.4256 22.833C45.3832 23.4472 45.2455 24.252 45.129 24.6333C45.0126 25.0145 44.7372 25.6181 44.5148 25.9782C44.0716 26.6958 43.5114 27.3668 42.8416 27.8843C40.7849 29.5671 37.5648 29.6614 35.3758 28.202C31.2404 25.583 31.5439 19.1164 35.7676 16.8285C37.1585 16.0846 38.7506 15.8539 40.3001 16.1826C40.5011 16.2252 40.8248 16.3344 41.3517 16.5606C42.0698 16.8688 42.8878 16.3652 42.891 15.5837L42.8946 14.7318C42.8946 12.2961 42.9052 12.1796 43.1276 11.8407Z" fill="#4534B8"/>
<path d="M82.704 28.3226V25.7306H86.76C87.736 25.7306 88.608 25.5706 89.376 25.2506C90.16 24.9306 90.824 24.4906 91.368 23.9306C91.928 23.3706 92.352 22.7066 92.64 21.9386C92.928 21.1706 93.072 20.3386 93.072 19.4426C93.072 18.4986 92.928 17.6506 92.64 16.8986C92.352 16.1306 91.928 15.4746 91.368 14.9306C90.824 14.3706 90.16 13.9466 89.376 13.6586C88.608 13.3546 87.736 13.2026 86.76 13.2026H82.704V10.6106H86.52C88.104 10.6106 89.48 10.8506 90.648 11.3306C91.832 11.7946 92.808 12.4426 93.576 13.2746C94.36 14.0906 94.944 15.0106 95.328 16.0346C95.728 17.0426 95.928 18.0906 95.928 19.1786V19.7066C95.928 20.7306 95.728 21.7626 95.328 22.8026C94.944 23.8266 94.36 24.7546 93.576 25.5866C92.808 26.4026 91.832 27.0666 90.648 27.5786C89.48 28.0746 88.104 28.3226 86.52 28.3226H82.704ZM80.376 28.3226V10.6106H83.184V28.3226H80.376ZM103.418 28.6106C101.898 28.6106 100.73 28.1226 99.9141 27.1466C99.0981 26.1546 98.6901 24.6986 98.6901 22.7786V15.2906H101.45V23.1626C101.45 24.0906 101.698 24.8186 102.194 25.3466C102.706 25.8586 103.386 26.1146 104.234 26.1146C105.114 26.1146 105.834 25.8346 106.394 25.2746C106.954 24.7146 107.234 23.9466 107.234 22.9706V15.2906H109.994V28.2266H107.81V22.7066H108.074C108.074 24.0026 107.906 25.0906 107.57 25.9706C107.234 26.8346 106.73 27.4906 106.058 27.9386C105.402 28.3866 104.562 28.6106 103.538 28.6106H103.418ZM119.542 28.6586C118.63 28.6586 117.79 28.4906 117.022 28.1546C116.254 27.8186 115.59 27.3466 115.03 26.7386C114.47 26.1306 114.03 25.4266 113.71 24.6266C113.406 23.8266 113.254 22.9546 113.254 22.0106V21.5546C113.254 20.6266 113.398 19.7626 113.686 18.9626C113.99 18.1626 114.414 17.4586 114.958 16.8506C115.518 16.2266 116.174 15.7466 116.926 15.4106C117.678 15.0586 118.518 14.8826 119.446 14.8826C120.454 14.8826 121.35 15.0986 122.134 15.5306C122.934 15.9466 123.574 16.5946 124.054 17.4746C124.55 18.3386 124.822 19.4506 124.87 20.8106L123.91 19.4426V10.7066H126.67V28.2266H124.486V22.6106H125.11C125.062 24.0026 124.774 25.1466 124.246 26.0426C123.718 26.9386 123.046 27.6026 122.23 28.0346C121.414 28.4506 120.518 28.6586 119.542 28.6586ZM120.046 26.2826C120.782 26.2826 121.446 26.1226 122.038 25.8026C122.63 25.4826 123.102 25.0106 123.454 24.3866C123.822 23.7626 124.006 23.0266 124.006 22.1786V21.1466C124.006 20.3146 123.822 19.6106 123.454 19.0346C123.086 18.4586 122.598 18.0186 121.99 17.7146C121.398 17.4106 120.742 17.2586 120.022 17.2586C119.238 17.2586 118.542 17.4506 117.934 17.8346C117.326 18.2026 116.854 18.7306 116.518 19.4186C116.182 20.0906 116.014 20.8826 116.014 21.7946C116.014 22.7066 116.182 23.5066 116.518 24.1946C116.87 24.8666 117.35 25.3866 117.958 25.7546C118.582 26.1066 119.278 26.2826 120.046 26.2826ZM135.246 28.6106C133.726 28.6106 132.558 28.1226 131.742 27.1466C130.926 26.1546 130.518 24.6986 130.518 22.7786V15.2906H133.278V23.1626C133.278 24.0906 133.526 24.8186 134.022 25.3466C134.534 25.8586 135.214 26.1146 136.062 26.1146C136.942 26.1146 137.662 25.8346 138.222 25.2746C138.782 24.7146 139.062 23.9466 139.062 22.9706V15.2906H141.822V28.2266H139.638V22.7066H139.902C139.902 24.0026 139.734 25.0906 139.398 25.9706C139.062 26.8346 138.558 27.4906 137.886 27.9386C137.23 28.3866 136.39 28.6106 135.366 28.6106H135.246ZM145.178 28.2266V25.6346L151.922 17.5466V17.9306L151.49 17.3066L151.826 17.4746H145.106V15.3146H154.586V17.9066L147.842 25.9946V25.6586L148.322 26.3066L147.962 26.0666H154.922V28.2266H145.178ZM158.43 28.2266V15.3146H161.19V28.2266H158.43ZM156.534 17.4266V15.3146H161.19V17.4266H156.534ZM159.342 13.4666C158.766 13.4666 158.334 13.3226 158.046 13.0346C157.774 12.7306 157.638 12.3386 157.638 11.8586C157.638 11.3946 157.774 11.0186 158.046 10.7306C158.334 10.4266 158.766 10.2746 159.342 10.2746C159.918 10.2746 160.342 10.4266 160.614 10.7306C160.886 11.0186 161.022 11.3946 161.022 11.8586C161.022 12.3386 160.886 12.7306 160.614 13.0346C160.342 13.3226 159.918 13.4666 159.342 13.4666ZM165.545 28.2266V10.7066H168.305V28.2266H165.545ZM163.817 12.8186V10.7066H168.305V12.8186H163.817ZM173.055 28.2266V15.3146H175.815V28.2266H173.055ZM171.159 17.4266V15.3146H175.815V17.4266H171.159ZM173.967 13.4666C173.391 13.4666 172.959 13.3226 172.671 13.0346C172.399 12.7306 172.263 12.3386 172.263 11.8586C172.263 11.3946 172.399 11.0186 172.671 10.7306C172.959 10.4266 173.391 10.2746 173.967 10.2746C174.543 10.2746 174.967 10.4266 175.239 10.7306C175.511 11.0186 175.647 11.3946 175.647 11.8586C175.647 12.3386 175.511 12.7306 175.239 13.0346C174.967 13.3226 174.543 13.4666 173.967 13.4666Z" fill="#ECEBF8"/>
</svg>
