<svg width="181" height="40" viewBox="0 0 181 40" fill="none" xmlns="http://www.w3.org/2000/svg">
<mask id="mask0_12776_164892" style="mask-type:alpha" maskUnits="userSpaceOnUse" x="0" y="0" width="53" height="40">
<path d="M23.7687 1.36482C24.0511 0.941226 24.6159 0.423501 24.9924 0.235237C25.3925 0.0469729 26.0514 -0.047159 26.4279 0.02344C26.828 0.0940389 27.3928 0.329369 27.7223 0.588232C28.0517 0.823561 28.4518 1.27069 28.593 1.57662C28.7953 1.9588 28.8903 3.43631 28.8983 10.4204C28.8991 11.0666 28.6332 11.6887 28.1641 12.1331L27.1104 13.1313C26.122 14.0726 24.8983 15.4375 24.4276 16.1435C24.0602 16.6684 23.5757 17.5446 22.9257 19.0332C22.5713 19.8449 21.4962 20.044 20.8977 19.3911C19.1065 17.4063 16.9483 16.4965 14.3085 16.4965C11.8451 16.4965 9.59935 17.3061 7.90748 19.1793C5.38947 21.7906 4.60852 25.7743 6.23664 29.0867C6.6367 29.9339 7.43682 31.087 8.00161 31.6518C10.5705 34.2207 14.9302 35.1127 18.1914 33.3932C21.503 31.6872 22.9436 28.6685 23.251 25.1331C23.3922 23.6035 23.7216 21.7444 24.0746 20.6619C24.3806 19.6735 25.063 18.2144 25.5572 17.4378C26.0514 16.6613 27.1575 15.3905 27.9811 14.6139C28.8754 13.7432 30.1932 12.8489 31.2522 12.3077C32.2171 11.837 33.6526 11.2722 34.4292 11.0839C35.2057 10.8957 36.7354 10.7309 37.8414 10.7309C38.9475 10.7309 40.5007 10.8957 41.3243 11.0839C42.1244 11.2722 43.2776 11.6723 43.9129 11.9782C45.2301 12.5861 46.784 11.729 46.784 10.2784V7.95406C46.784 3.10626 46.831 2.25907 47.2076 1.55308C47.4664 1.03536 47.9371 0.564699 48.5489 0.282303C49.8784 -0.343324 50.9251 0.240466 51.8163 1.15C52.2715 1.61458 52.4764 2.26128 52.4718 2.91168L52.3848 15.2022C52.3142 28.0042 52.2907 28.5454 51.82 29.7927C51.0844 31.6318 50.2348 33.3095 48.9725 34.8523C48.3371 35.6524 47.0664 36.782 46.078 37.4409C41.5801 40.4029 35.7791 40.7038 31.0169 38.2645C30.296 37.8777 29.4174 37.2938 28.3616 36.3755C27.6828 35.785 27.5825 34.7814 28.0752 34.0286C28.5459 33.3226 29.1578 32.1224 29.4402 31.3694C29.5615 31.0457 29.6786 30.7481 29.7763 30.5159C29.918 30.1791 30.1715 30.1531 30.4282 30.413C30.6636 30.6513 30.9814 30.9809 31.3228 31.3458C32.0994 32.193 33.0878 32.9226 34.0762 33.3932C36.323 34.4976 39.4478 34.5668 41.7008 33.4403C42.4539 33.0402 43.5599 32.2636 44.1483 31.6753C47.554 28.2696 47.5328 22.3756 44.1483 18.991C40.5871 15.4298 34.5973 15.7031 31.2993 19.3676C30.5227 20.2147 29.8638 21.2267 29.5578 22.0268C29.299 22.7798 28.993 24.3801 28.8754 25.7921C28.7812 27.157 28.4753 28.9455 28.2164 29.7927C27.9576 30.6399 27.3457 31.9812 26.8515 32.7814C25.8666 34.376 24.6218 35.8671 23.1333 37.0173C18.5628 40.7568 11.4071 40.9663 6.54257 37.7233C-2.64714 31.9031 -1.97271 17.5329 7.41329 12.4489C10.5041 10.7956 14.042 10.2829 17.4854 11.0133C17.9321 11.1081 18.6514 11.3508 19.8224 11.8535C21.418 12.5384 23.2359 11.4191 23.2431 9.68263L23.251 7.78932C23.251 2.37674 23.2745 2.11788 23.7687 1.36482Z" fill="white"/>
</mask>
<g mask="url(#mask0_12776_164892)">
<path fill-rule="evenodd" clip-rule="evenodd" d="M-198.536 41.6C-193.643 41.6 -189.11 40.059 -185.397 37.4358C-181.683 40.059 -177.15 41.6 -172.258 41.6C-167.365 41.6 -162.832 40.059 -159.119 37.4358C-155.405 40.059 -150.872 41.6 -145.98 41.6C-141.087 41.6 -136.555 40.059 -132.841 37.4358C-129.127 40.059 -124.594 41.6 -119.702 41.6C-114.809 41.6 -110.277 40.059 -106.563 37.4358C-102.849 40.059 -98.3163 41.6 -93.4238 41.6C-88.5312 41.6 -83.9986 40.059 -80.2848 37.4358C-76.571 40.059 -72.0384 41.6 -67.1458 41.6C-62.2533 41.6 -57.7207 40.059 -54.0069 37.4358C-50.2931 40.059 -45.7605 41.6 -40.8679 41.6C-35.9753 41.6 -31.4427 40.059 -27.7289 37.4358C-24.0151 40.059 -19.4825 41.6 -14.5899 41.6C-9.69736 41.6 -5.16473 40.059 -1.45094 37.4358C2.26285 40.059 6.79547 41.6 11.688 41.6C16.5806 41.6 21.1132 40.059 24.827 37.4358C28.5408 40.059 33.0734 41.6 37.966 41.6C42.8586 41.6 47.3912 40.059 51.105 37.4358C54.8188 40.059 59.3514 41.6 64.244 41.6C76.8361 41.6 87.044 31.3921 87.044 18.8C87.044 6.20791 76.8361 -4 64.244 -4C59.3514 -4 54.8188 -2.45896 51.105 0.164218C47.3912 -2.45896 42.8586 -4 37.966 -4C33.0734 -4 28.5408 -2.45896 24.827 0.164205C21.1132 -2.45896 16.5806 -4 11.688 -4C6.79547 -4 2.26285 -2.45897 -1.45094 0.164194C-5.16473 -2.45897 -9.69736 -4 -14.5899 -4C-19.4825 -4 -24.0151 -2.45896 -27.7289 0.16421C-31.4427 -2.45896 -35.9753 -4 -40.8679 -4C-45.7605 -4 -50.2931 -2.45896 -54.0069 0.164199C-57.7207 -2.45896 -62.2533 -4 -67.1458 -4C-72.0384 -4 -76.571 -2.45897 -80.2848 0.164192C-83.9986 -2.45897 -88.5312 -4 -93.4238 -4C-98.3163 -4 -102.849 -2.45896 -106.563 0.164216C-110.277 -2.45896 -114.809 -4 -119.702 -4C-124.594 -4 -129.127 -2.45896 -132.841 0.164199C-136.555 -2.45896 -141.087 -4 -145.98 -4C-150.872 -4 -155.405 -2.45896 -159.119 0.164196C-162.832 -2.45896 -167.365 -4 -172.258 -4C-177.15 -4 -181.683 -2.45895 -185.397 0.164222C-189.11 -2.45895 -193.643 -4 -198.536 -4C-211.128 -4 -221.336 6.20791 -221.336 18.8C-221.336 31.3921 -211.128 41.6 -198.536 41.6Z" fill="#4534B8"/>
</g>
<path d="M67.184 29.612V25.328H70.992C71.944 25.328 72.8026 25.188 73.568 24.908C74.3333 24.6093 74.9866 24.1987 75.528 23.676C76.0693 23.1347 76.48 22.4907 76.76 21.744C77.04 20.9787 77.18 20.1387 77.18 19.224C77.18 18.272 77.04 17.4227 76.76 16.676C76.48 15.9293 76.0693 15.2947 75.528 14.772C74.9866 14.2493 74.3333 13.8573 73.568 13.596C72.8026 13.316 71.944 13.176 70.992 13.176H67.184V8.892H70.74C72.588 8.892 74.2026 9.16267 75.584 9.704C76.9653 10.2453 78.1226 10.9827 79.056 11.916C79.9893 12.8493 80.68 13.9227 81.128 15.136C81.5946 16.3307 81.828 17.5907 81.828 18.916V19.532C81.828 20.764 81.5946 21.9867 81.128 23.2C80.68 24.3947 79.9893 25.4773 79.056 26.448C78.1226 27.4 76.9653 28.1653 75.584 28.744C74.2026 29.3227 72.588 29.612 70.74 29.612H67.184ZM63.152 29.612V8.892H67.744V29.612H63.152ZM89.955 29.976C88.1816 29.976 86.819 29.4067 85.867 28.268C84.915 27.1107 84.439 25.3747 84.439 23.06V14.156H88.919V23.284C88.919 24.1053 89.1523 24.7587 89.619 25.244C90.0856 25.7293 90.711 25.972 91.495 25.972C92.2976 25.972 92.951 25.72 93.455 25.216C93.959 24.712 94.211 24.0307 94.211 23.172V14.156H98.691V29.5H95.135V23.032H95.443C95.443 24.5813 95.2376 25.8787 94.827 26.924C94.435 27.9507 93.847 28.716 93.063 29.22C92.279 29.724 91.3083 29.976 90.151 29.976H89.955ZM109.15 30.004C108.067 30.004 107.078 29.808 106.182 29.416C105.304 29.024 104.539 28.4827 103.886 27.792C103.232 27.0827 102.728 26.252 102.374 25.3C102.038 24.348 101.87 23.3213 101.87 22.22V21.576C101.87 20.4747 102.028 19.448 102.346 18.496C102.682 17.544 103.158 16.7133 103.774 16.004C104.408 15.276 105.164 14.716 106.042 14.324C106.919 13.9133 107.899 13.708 108.982 13.708C110.214 13.708 111.278 13.9787 112.174 14.52C113.07 15.0427 113.77 15.8267 114.274 16.872C114.778 17.8987 115.058 19.168 115.114 20.68L113.938 19.588V9.06H118.446V29.5H114.89V23.144H115.506C115.45 24.6 115.142 25.8413 114.582 26.868C114.04 27.8947 113.303 28.6787 112.37 29.22C111.436 29.7427 110.363 30.004 109.15 30.004ZM110.27 26.252C110.96 26.252 111.586 26.1027 112.146 25.804C112.724 25.4867 113.182 25.0293 113.518 24.432C113.872 23.8347 114.05 23.116 114.05 22.276V21.24C114.05 20.4187 113.872 19.728 113.518 19.168C113.163 18.608 112.696 18.1787 112.118 17.88C111.539 17.5813 110.914 17.432 110.242 17.432C109.495 17.432 108.823 17.628 108.226 18.02C107.647 18.3933 107.19 18.916 106.854 19.588C106.518 20.2413 106.35 21.0067 106.35 21.884C106.35 22.78 106.518 23.5547 106.854 24.208C107.19 24.8613 107.656 25.3653 108.254 25.72C108.851 26.0747 109.523 26.252 110.27 26.252ZM127.689 29.976C125.916 29.976 124.553 29.4067 123.601 28.268C122.649 27.1107 122.173 25.3747 122.173 23.06V14.156H126.653V23.284C126.653 24.1053 126.887 24.7587 127.353 25.244C127.82 25.7293 128.445 25.972 129.229 25.972C130.032 25.972 130.685 25.72 131.189 25.216C131.693 24.712 131.945 24.0307 131.945 23.172V14.156H136.425V29.5H132.869V23.032H133.177C133.177 24.5813 132.972 25.8787 132.561 26.924C132.169 27.9507 131.581 28.716 130.797 29.22C130.013 29.724 129.043 29.976 127.885 29.976H127.689ZM139.548 29.5V26.364L146.744 17.74V18.188L146.072 17.348L146.576 17.6H139.576V14.156H151.644V17.292L144.448 25.916V25.496L145.12 26.336L144.616 26.056H151.868V29.5H139.548ZM155.339 29.5V14.156H159.819V29.5H155.339ZM153.295 17.46V14.156H159.819V17.46H153.295ZM157.075 12.644C156.235 12.644 155.61 12.4293 155.199 12C154.807 11.552 154.611 10.992 154.611 10.32C154.611 9.62933 154.807 9.06933 155.199 8.64C155.61 8.192 156.235 7.968 157.075 7.968C157.915 7.968 158.531 8.192 158.923 8.64C159.334 9.06933 159.539 9.62933 159.539 10.32C159.539 10.992 159.334 11.552 158.923 12C158.531 12.4293 157.915 12.644 157.075 12.644ZM164.158 29.5V9.06H168.666V29.5H164.158ZM162.338 12.364V9.06H168.666V12.364H162.338ZM173.522 29.5V14.156H178.002V29.5H173.522ZM171.478 17.46V14.156H178.002V17.46H171.478ZM175.258 12.644C174.418 12.644 173.793 12.4293 173.382 12C172.99 11.552 172.794 10.992 172.794 10.32C172.794 9.62933 172.99 9.06933 173.382 8.64C173.793 8.192 174.418 7.968 175.258 7.968C176.098 7.968 176.714 8.192 177.106 8.64C177.517 9.06933 177.722 9.62933 177.722 10.32C177.722 10.992 177.517 11.552 177.106 12C176.714 12.4293 176.098 12.644 175.258 12.644Z" fill="#4534B8"/>
</svg>
