<svg width="608" height="264" viewBox="0 0 608 264" fill="none" xmlns="http://www.w3.org/2000/svg">
<g clip-path="url(#clip0_16691_16481)">
<rect x="0.5" width="607" height="263.682" rx="14.1574" fill="url(#paint0_linear_16691_16481)"/>
<g opacity="0.5" filter="url(#filter0_f_16691_16481)">
<g filter="url(#filter1_f_16691_16481)">
<ellipse cx="399.912" cy="158.257" rx="89.0915" ry="70.0321" fill="#A22EBF" fill-opacity="0.34"/>
</g>
<g opacity="0.6" filter="url(#filter2_f_16691_16481)">
<path d="M286.445 154.101C297.58 125.812 324.557 77.6117 340.926 140.549C347.687 166.542 364.786 219.64 370.849 188.759L380.295 154.101C386.658 129.959 401.929 96.1598 412.109 154.101C422.289 212.042 431.728 201.052 435.174 188.314C445.248 146.251 461.897 76.5203 470.169 126.996C478.441 177.473 487.269 209.642 492.836 197.201C507.336 164.799 505.229 101.433 512.72 116.777C516.299 124.108 523.854 173.429 531.013 183.649C536.739 191.825 539.098 165.505 538.568 154.101" stroke="#703970" stroke-opacity="0.67" stroke-width="0.940842"/>
<path d="M287.235 155.024C298.3 128.676 325.109 83.7841 341.375 142.402C348.093 166.611 365.085 216.065 371.11 187.303L380.497 155.024C386.82 132.539 401.995 101.059 412.111 155.024C422.228 208.989 431.607 198.753 435.032 186.89C445.043 147.713 461.587 82.7675 469.807 129.78C478.027 176.792 486.8 206.754 492.332 195.166C506.741 164.988 504.647 105.97 512.091 120.261C515.648 127.09 523.156 173.026 530.269 182.544C535.96 190.159 538.304 165.646 537.778 155.024" stroke="#703970" stroke-opacity="0.67" stroke-width="0.940842"/>
<path d="M286.445 156.386C297.58 131.702 324.557 89.6451 340.926 144.561C347.687 167.241 364.786 213.572 370.849 186.626L380.295 156.386C386.658 135.32 401.929 105.829 412.109 156.386C422.289 206.942 431.728 197.353 435.174 186.239C445.248 149.536 461.897 88.6928 470.169 132.736C478.441 176.779 487.269 204.848 492.836 193.993C507.336 165.72 505.229 110.43 512.72 123.819C516.299 130.216 523.854 173.251 531.013 182.168C536.739 189.302 539.098 166.337 538.568 156.386" stroke="#703970" stroke-opacity="0.67" stroke-width="0.940842"/>
<path d="M286.445 154.611C297.58 129.928 324.557 87.8707 340.926 142.786C347.687 165.467 364.786 211.797 370.849 184.852L380.295 154.611C386.658 133.546 401.929 104.055 412.109 154.611C422.289 205.168 431.728 195.578 435.174 184.464C445.248 147.762 461.897 86.9184 470.169 130.961C478.441 175.004 487.269 203.074 492.836 192.218C507.336 163.946 505.229 108.656 512.72 122.044C516.299 128.441 523.854 171.476 531.013 180.393C536.739 187.527 539.098 164.562 538.568 154.611" stroke="#703970" stroke-opacity="0.67" stroke-width="0.940842"/>
<path d="M286.445 152.392C297.58 127.709 324.557 85.652 340.926 140.568C347.687 163.248 364.786 209.578 370.849 182.633L380.295 152.392C386.658 131.327 401.929 101.836 412.109 152.392C422.289 202.949 431.728 193.36 435.174 182.246C445.248 145.543 461.897 84.6997 470.169 128.743C478.441 172.786 487.269 200.855 492.836 190C507.336 161.727 505.229 106.437 512.72 119.825C516.299 126.223 523.854 169.257 531.013 178.175C536.739 185.308 539.098 162.343 538.568 152.392" stroke="#703970" stroke-opacity="0.67" stroke-width="0.940842"/>
<path d="M287.235 154.881C298.3 132.832 325.109 95.2648 341.375 144.319C348.093 164.578 365.085 205.963 371.11 181.894L380.497 154.881C386.82 136.065 401.995 109.721 412.111 154.881C422.228 200.041 431.607 191.476 435.032 181.548C445.043 148.763 461.587 94.4141 469.807 133.756C478.027 173.098 486.8 198.171 492.332 188.474C506.741 163.219 504.647 113.831 512.091 125.791C515.648 131.505 523.156 169.946 530.269 177.911C535.96 184.284 538.304 163.77 537.778 154.881" stroke="#703970" stroke-opacity="0.67" stroke-width="0.940842"/>
<path d="M287.235 154.03C298.3 133.923 325.109 99.6628 341.375 144.397C348.093 162.873 365.085 200.614 371.11 178.664L380.497 154.03C386.82 136.87 401.995 112.846 412.111 154.03C422.228 195.214 431.607 187.402 435.032 178.349C445.043 148.45 461.587 98.887 469.807 134.765C478.027 170.642 486.8 193.508 492.332 184.665C506.741 161.634 504.647 116.594 512.091 127.501C515.648 132.712 523.156 167.768 530.269 175.032C535.96 180.844 538.304 162.136 537.778 154.03" stroke="#703970" stroke-opacity="0.67" stroke-width="0.940842"/>
<path d="M286.445 153.617C297.545 135.174 324.438 103.749 340.755 144.782C347.495 161.729 364.541 196.346 370.584 176.213L380.001 153.617C386.344 137.878 401.567 115.842 411.715 153.617C421.864 191.393 431.272 184.228 434.708 175.923C444.751 148.5 461.347 103.038 469.593 135.946C477.839 168.855 486.639 189.828 492.189 181.717C506.644 160.592 504.543 119.28 512.01 129.284C515.578 134.063 523.11 166.219 530.246 172.882C535.954 178.212 538.307 161.053 537.778 153.617" stroke="#703970" stroke-opacity="0.67" stroke-width="0.940842"/>
<path d="M287.235 153.872C298.3 137.231 325.109 108.878 341.375 145.9C348.093 161.19 365.085 192.424 371.11 174.259L380.497 153.872C386.82 139.671 401.995 119.789 412.111 153.872C422.228 187.955 431.607 181.49 435.032 173.998C445.043 149.254 461.587 108.236 469.807 137.928C478.027 167.62 486.8 186.544 492.332 179.225C506.741 160.165 504.647 122.891 512.091 131.917C515.648 136.229 523.156 165.242 530.269 171.253C535.96 176.063 538.304 160.581 537.778 153.872" stroke="#703970" stroke-opacity="0.67" stroke-width="0.940842"/>
<path d="M287.235 154.561C298.3 139.168 325.109 112.942 341.375 147.187C348.093 161.33 365.085 190.222 371.11 173.419L380.497 154.561C386.82 141.424 401.995 123.034 412.111 154.561C422.228 186.087 431.607 180.108 435.032 173.177C445.043 150.289 461.587 112.348 469.807 139.813C478.027 167.278 486.8 184.782 492.332 178.012C506.741 160.381 504.647 125.903 512.091 134.252C515.648 138.241 523.156 165.078 530.269 170.638C535.96 175.087 538.304 160.766 537.778 154.561" stroke="#703970" stroke-opacity="0.67" stroke-width="0.940842"/>
<path d="M287.235 154.148C298.3 140.419 325.109 117.028 341.375 147.571C348.093 160.186 365.085 185.954 371.11 170.967L380.497 154.148C386.82 142.432 401.995 126.029 412.111 154.148C422.228 182.266 431.607 176.933 435.032 170.752C445.043 150.338 461.587 116.499 469.807 140.994C478.027 165.49 486.8 181.102 492.332 175.064C506.741 159.339 504.647 128.588 512.091 136.035C515.648 139.593 523.156 163.528 530.269 168.487C535.96 172.455 538.304 159.682 537.778 154.148" stroke="#703970" stroke-opacity="0.67" stroke-width="0.940842"/>
<path d="M287.235 154.179C298.3 142.114 325.109 121.558 341.375 148.399C348.093 159.484 365.085 182.129 371.11 168.959L380.497 154.179C386.82 143.883 401.995 129.468 412.111 154.179C422.228 178.889 431.607 174.202 435.032 168.77C445.043 150.831 461.587 121.093 469.807 142.619C478.027 164.146 486.8 177.865 492.332 172.56C506.741 158.741 504.647 131.717 512.091 138.261C515.648 141.388 523.156 162.422 530.269 166.78C535.96 170.267 538.304 159.042 537.778 154.179" stroke="#703970" stroke-opacity="0.67" stroke-width="0.940842"/>
<path d="M287.235 154.653C298.3 144.252 325.109 126.532 341.375 149.67C348.093 159.227 365.085 178.748 371.11 167.394L380.497 154.653C386.82 145.777 401.995 133.351 412.111 154.653C422.228 175.954 431.607 171.914 435.032 167.231C445.043 151.767 461.587 126.13 469.807 144.688C478.027 163.245 486.8 175.072 492.332 170.498C506.741 158.586 504.647 135.289 512.091 140.931C515.648 143.626 523.156 161.759 530.269 165.516C535.96 168.522 538.304 158.845 537.778 154.653" stroke="#703970" stroke-opacity="0.67" stroke-width="0.940842"/>
<path d="M286.445 154.464C297.545 145.866 324.438 131.217 340.755 150.345C347.495 158.245 364.541 174.383 370.584 164.997L380.001 154.464C386.344 147.127 401.567 136.854 411.715 154.464C421.864 172.073 431.272 168.733 434.708 164.862C444.751 152.078 461.347 130.886 469.593 146.226C477.839 161.567 486.639 171.344 492.189 167.563C506.644 157.715 504.543 138.457 512.01 143.12C515.578 145.349 523.11 160.338 530.246 163.444C535.954 165.929 538.307 157.93 537.778 154.464" stroke="#703970" stroke-opacity="0.67" stroke-width="0.940842"/>
<path d="M287.235 154.928C298.335 147.44 325.228 134.681 341.545 151.341C348.285 158.222 365.331 172.277 371.374 164.103L380.791 154.928C387.134 148.538 402.357 139.591 412.505 154.928C422.654 170.266 432.062 167.357 435.498 163.985C445.541 152.851 462.138 134.392 470.383 147.754C478.629 161.115 487.429 169.631 492.979 166.337C507.434 157.76 505.333 140.987 512.8 145.049C516.368 146.989 523.9 160.045 531.036 162.75C536.744 164.914 539.097 157.947 538.568 154.928" stroke="#703970" stroke-opacity="0.67" stroke-width="0.940842"/>
<path d="M287.235 155.183C298.335 149.498 325.228 139.81 341.545 152.459C348.285 157.684 365.331 168.355 371.374 162.149L380.791 155.183C387.134 150.331 402.357 143.538 412.505 155.183C422.654 166.828 432.062 164.619 435.498 162.059C445.541 153.605 462.138 139.591 470.383 149.736C478.629 159.88 487.429 166.346 492.979 163.845C507.434 157.333 505.333 144.598 512.8 147.682C516.368 149.155 523.9 159.068 531.036 161.122C536.744 162.765 539.097 157.475 538.568 155.183" stroke="#703970" stroke-opacity="0.67" stroke-width="0.940842"/>
<path d="M286.445 155.214C297.615 151.192 324.677 144.34 341.097 153.287C347.879 156.982 365.032 164.531 371.113 160.141L380.59 155.214C386.972 151.782 402.291 146.977 412.503 155.214C422.715 163.451 432.183 161.888 435.64 160.078C445.746 154.098 462.447 144.185 470.745 151.361C479.042 158.536 487.898 163.109 493.483 161.341C508.028 156.735 505.915 147.727 513.429 149.908C517.019 150.95 524.599 157.961 531.779 159.414C537.524 160.577 539.89 156.835 539.359 155.214" stroke="#703970" stroke-opacity="0.67" stroke-width="0.940842"/>
</g>
<path d="M261.233 153.522C273.405 111.811 302.894 40.7429 320.786 133.54C328.176 171.867 346.868 250.157 353.494 204.624L363.821 153.522C370.776 117.926 387.468 68.0912 398.596 153.522C409.724 238.954 420.041 222.75 423.808 203.969C434.82 141.948 453.019 39.1337 462.061 113.558C471.103 187.983 480.753 235.416 486.839 217.072C502.688 169.296 500.385 75.8656 508.573 98.49C512.485 109.3 520.744 182.021 528.569 197.09C534.829 209.144 537.408 170.338 536.828 153.522" stroke="url(#paint1_linear_16691_16481)" stroke-width="0.940842"/>
<path d="M262.1 154.228C274.194 114.995 303.496 48.1483 321.275 135.433C328.618 171.482 347.191 245.122 353.776 202.294L364.037 154.228C370.948 120.746 387.534 73.872 398.592 154.228C409.65 234.584 419.901 219.343 423.644 201.678C434.587 143.341 452.671 46.6347 461.655 116.638C470.639 186.642 480.228 231.257 486.275 214.002C502.025 169.064 499.736 81.1846 507.872 102.465C511.76 112.633 519.966 181.034 527.741 195.207C533.961 206.546 536.524 170.045 535.948 154.228" stroke="url(#paint2_linear_16691_16481)" stroke-width="0.940842"/>
<path d="M261.233 155.93C273.405 119.381 302.894 57.1078 320.786 138.42C328.176 172.003 346.868 240.604 353.494 200.707L363.821 155.93C370.776 124.739 387.468 81.0715 398.596 155.93C409.724 230.788 420.041 216.589 423.808 200.132C434.82 145.788 453.019 55.6978 462.061 120.912C471.103 186.125 480.753 227.688 486.839 211.614C502.688 169.751 500.385 87.8837 508.573 107.708C512.485 117.18 520.744 180.901 528.569 194.105C534.829 204.668 537.408 170.664 536.828 155.93" stroke="url(#paint3_linear_16691_16481)" stroke-width="0.940842"/>
<path d="M261.233 153.613C273.404 116.858 302.891 54.2335 320.782 136.006C328.171 169.778 346.862 238.766 353.488 198.643L363.814 153.613C370.768 122.246 387.459 78.3325 398.587 153.613C409.714 228.894 420.03 214.616 423.797 198.066C434.809 143.414 453.007 52.8154 462.048 118.398C471.089 183.98 480.738 225.777 486.823 209.612C502.672 167.513 500.369 85.1832 508.557 105.12C512.469 114.645 520.727 178.726 528.551 192.004C534.81 202.627 537.389 168.431 536.81 153.613" stroke="url(#paint4_linear_16691_16481)" stroke-width="0.940842"/>
<path d="M261.233 150.31C273.404 113.554 302.891 50.9298 320.782 132.702C328.171 166.474 346.862 235.463 353.488 195.34L363.814 150.31C370.768 118.943 387.459 75.0288 398.587 150.31C409.714 225.591 420.03 211.312 423.797 194.762C434.809 140.111 453.007 49.5117 462.048 115.094C471.089 180.676 480.738 222.473 486.823 206.309C502.672 164.209 500.369 81.8795 508.557 101.816C512.469 111.341 520.727 175.423 528.551 188.701C534.81 199.323 537.389 165.127 536.81 150.31" stroke="url(#paint5_linear_16691_16481)" stroke-width="0.940842"/>
<path d="M262.1 154.017C274.194 121.185 303.496 65.2448 321.275 138.288C328.618 168.456 347.191 230.08 353.776 194.24L364.037 154.017C370.948 125.998 387.534 86.7715 398.592 154.017C409.65 221.262 419.901 208.508 423.644 193.725C434.587 144.906 452.671 63.9781 461.655 122.56C470.639 181.142 480.228 218.477 486.275 204.038C502.025 166.433 499.736 92.8909 507.872 110.699C511.76 119.208 519.966 176.449 527.741 188.31C533.961 197.798 536.524 167.253 535.948 154.017" stroke="url(#paint6_linear_16691_16481)" stroke-width="0.940842"/>
<path d="M262.1 152.748C274.194 122.807 303.496 71.7925 321.275 138.405C328.618 165.916 347.191 222.114 353.776 189.43L364.037 152.748C370.948 127.196 387.534 91.4237 398.592 152.748C409.65 214.073 419.901 202.441 423.644 188.96C434.587 144.44 452.671 70.6374 461.655 124.061C470.639 177.485 480.228 211.533 486.275 198.365C502.025 164.071 499.736 97.0044 507.872 113.245C511.76 121.004 519.966 173.205 527.741 184.022C533.961 192.675 536.524 164.819 535.948 152.748" stroke="url(#paint7_linear_16691_16481)" stroke-width="0.940842"/>
<path d="M261.233 152.133C273.366 124.67 302.76 77.8777 320.596 138.977C327.962 164.212 346.594 215.759 353.199 185.78L363.492 152.133C370.425 128.696 387.064 95.8842 398.156 152.133C409.249 208.383 419.532 197.714 423.288 185.348C434.265 144.513 452.405 76.8181 461.418 125.821C470.431 174.823 480.05 206.053 486.116 193.975C501.915 162.519 499.619 101.003 507.781 115.899C511.681 123.017 519.914 170.898 527.713 180.819C533.953 188.756 536.523 163.205 535.946 152.133" stroke="url(#paint8_linear_16691_16481)" stroke-width="0.940842"/>
<path d="M262.1 152.514C274.194 127.735 303.496 85.5159 321.275 140.643C328.618 163.411 347.191 209.92 353.776 182.871L364.037 152.514C370.948 131.367 387.534 101.762 398.592 152.514C409.65 203.265 419.901 193.639 423.644 182.482C434.587 145.638 452.671 84.5599 461.655 128.773C470.639 172.985 480.228 201.163 486.275 190.266C502.025 161.884 499.736 106.381 507.872 119.821C511.76 126.243 519.966 169.444 527.741 178.395C533.961 185.556 536.524 162.503 535.948 152.514" stroke="url(#paint9_linear_16691_16481)" stroke-width="0.940842"/>
<path d="M262.1 153.539C274.194 130.618 303.496 91.5658 321.275 142.558C328.618 163.619 347.191 206.64 353.776 181.619L364.037 153.539C370.948 133.978 387.534 106.594 398.592 153.539C409.65 200.484 419.901 191.579 423.644 181.259C434.587 147.179 452.671 90.6815 461.655 131.578C470.639 172.475 480.228 198.54 486.275 188.459C502.025 162.206 499.736 110.866 507.872 123.298C511.76 129.238 519.966 169.199 527.741 177.479C533.961 184.103 536.524 162.779 535.948 153.539" stroke="url(#paint10_linear_16691_16481)" stroke-width="0.940842"/>
<path d="M262.1 152.923C274.194 132.481 303.496 97.65 321.275 143.13C328.618 161.914 347.191 200.283 353.776 177.968L364.037 152.923C370.948 135.477 387.534 111.053 398.592 152.923C409.65 194.793 419.901 186.851 423.644 177.647C434.587 147.251 452.671 96.8613 461.655 133.337C470.639 169.812 480.228 193.059 486.275 184.069C502.025 160.654 499.736 114.864 507.872 125.952C511.76 131.25 519.966 166.89 527.741 174.275C533.961 180.183 536.524 161.164 535.948 152.923" stroke="url(#paint11_linear_16691_16481)" stroke-width="0.940842"/>
<path d="M262.1 152.969C274.194 135.004 303.496 104.395 321.275 144.362C328.618 160.869 347.191 194.588 353.776 174.978L364.037 152.969C370.948 137.638 387.534 116.174 398.592 152.969C409.65 189.763 419.901 182.784 423.644 174.696C434.587 147.984 452.671 103.702 461.655 135.756C470.639 167.811 480.228 188.24 486.275 180.339C502.025 159.762 499.736 119.522 507.872 129.267C511.76 133.922 519.966 165.243 527.741 171.733C533.961 176.925 536.524 160.211 535.948 152.969" stroke="url(#paint12_linear_16691_16481)" stroke-width="0.940842"/>
<path d="M262.1 153.676C274.194 138.189 303.496 111.803 321.275 146.257C328.618 160.487 347.191 189.555 353.776 172.65L364.037 153.676C370.948 140.46 387.534 121.957 398.592 153.676C409.65 185.396 419.901 179.379 423.644 172.406C434.587 149.379 452.671 111.205 461.655 138.838C470.639 166.471 480.228 184.082 486.275 177.271C502.025 159.533 499.736 124.843 507.872 133.243C511.76 137.257 519.966 164.257 527.741 169.852C533.961 174.328 536.524 159.92 535.948 153.676" stroke="url(#paint13_linear_16691_16481)" stroke-width="0.940842"/>
<path d="M261.233 153.395C273.366 140.593 302.76 118.78 320.596 147.262C327.962 159.026 346.594 183.055 353.199 169.08L363.492 153.395C370.425 142.47 387.064 127.174 398.156 153.395C409.249 179.617 419.532 174.643 423.288 168.879C434.265 149.843 452.405 118.286 461.418 141.129C470.431 163.972 480.05 178.531 486.116 172.9C501.915 158.237 499.619 129.56 507.781 136.504C511.681 139.822 519.914 162.142 527.713 166.767C533.953 170.467 536.523 158.556 535.946 153.395" stroke="url(#paint14_linear_16691_16481)" stroke-width="0.940842"/>
<path d="M262.1 154.086C274.232 142.935 303.626 123.937 321.462 148.744C328.828 158.99 347.46 179.919 354.065 167.747L364.358 154.086C371.291 144.57 387.93 131.248 399.022 154.086C410.115 176.924 420.399 172.592 424.154 167.571C435.131 150.992 453.272 123.507 462.284 143.402C471.297 163.298 480.916 175.978 486.982 171.074C502.781 158.302 500.486 133.326 508.647 139.374C512.547 142.264 520.78 161.704 528.579 165.732C534.819 168.955 537.39 158.581 536.812 154.086" stroke="url(#paint15_linear_16691_16481)" stroke-width="0.940842"/>
<path d="M262.1 154.466C274.232 146 303.626 131.575 321.462 150.41C328.828 158.189 347.46 174.08 354.065 164.838L364.358 154.466C371.291 147.241 387.93 137.126 399.022 154.466C410.115 171.806 420.399 168.517 424.154 164.705C435.131 152.117 453.272 131.248 462.284 146.354C471.297 161.46 480.916 171.088 486.982 167.364C502.781 157.667 500.486 138.704 508.647 143.296C512.547 145.49 520.78 160.25 528.579 163.309C534.819 165.755 537.39 157.879 536.812 154.466" stroke="url(#paint16_linear_16691_16481)" stroke-width="0.940842"/>
<path d="M261.233 154.512C273.442 148.524 303.021 138.321 320.969 151.644C328.381 157.146 347.13 168.386 353.777 161.849L364.135 154.512C371.112 149.402 387.855 142.247 399.017 154.512C410.18 166.777 420.528 164.451 424.307 161.755C435.353 152.851 453.608 138.09 462.677 148.775C471.746 159.46 481.426 166.269 487.531 163.636C503.429 156.777 501.119 143.364 509.332 146.612C513.256 148.164 521.541 158.604 529.389 160.767C535.668 162.498 538.255 156.926 537.674 154.512" stroke="url(#paint17_linear_16691_16481)" stroke-width="0.940842"/>
<g opacity="0.5">
<g style="mix-blend-mode:hard-light" filter="url(#filter3_f_16691_16481)">
<ellipse cx="399.493" cy="153.632" rx="165.996" ry="1.06725" fill="#FF377F" fill-opacity="0.69"/>
</g>
<g style="mix-blend-mode:hard-light" filter="url(#filter4_f_16691_16481)">
<rect x="261.767" y="153.098" width="275.452" height="1.06725" rx="0.533626" stroke="#F32E7C" stroke-width="1.06725"/>
</g>
<g style="mix-blend-mode:hard-light" filter="url(#filter5_f_16691_16481)">
<rect x="261.767" y="153.098" width="275.452" height="1.06725" rx="0.533626" stroke="#FF26C2" stroke-width="1.06725"/>
</g>
<g style="mix-blend-mode:hard-light" filter="url(#filter6_ddi_16691_16481)">
<rect x="261.767" y="153.098" width="275.452" height="1.06725" rx="0.533626" stroke="#FB37FF" stroke-opacity="0.2" stroke-width="1.06725"/>
</g>
<g filter="url(#filter7_f_16691_16481)">
<rect x="261.767" y="153.098" width="275.452" height="1.06725" rx="0.533626" stroke="#FB37FF" stroke-width="1.06725"/>
</g>
<g filter="url(#filter8_f_16691_16481)">
<rect x="261.767" y="153.098" width="275.452" height="1.06725" rx="0.533626" stroke="white" stroke-width="1.06725"/>
</g>
</g>
<g opacity="0.6" filter="url(#filter9_f_16691_16481)">
<path d="M272.998 144.076C285.28 109.592 315.035 50.8378 333.09 127.557C340.547 159.242 359.407 223.967 366.094 186.324L376.514 144.076C383.532 114.648 400.375 73.4475 411.604 144.076C422.833 214.705 433.243 201.309 437.044 185.782C448.156 134.507 466.52 49.5074 475.643 111.037C484.767 172.566 494.504 211.78 500.645 196.615C516.638 157.117 514.314 79.8749 522.576 98.5792C526.524 107.516 534.858 167.637 542.753 180.095C549.069 190.061 551.672 157.978 551.087 144.076" stroke="#703970" stroke-width="0.940842"/>
<path d="M273.871 145.201C286.076 113.084 315.645 58.3614 333.586 129.815C340.996 159.326 359.739 219.609 366.384 184.549L376.738 145.201C383.712 117.792 400.45 79.4195 411.608 145.201C422.766 210.983 433.111 198.506 436.889 184.045C447.931 136.289 466.18 57.1223 475.246 114.429C484.312 171.736 493.989 208.259 500.091 194.134C515.984 157.347 513.674 85.4058 521.885 102.826C525.808 111.15 534.089 167.145 541.935 178.748C548.212 188.03 550.798 158.149 550.217 145.201" stroke="#703970" stroke-width="0.940842"/>
<path d="M272.998 146.862C285.28 116.773 315.035 65.5065 333.09 132.447C340.547 160.095 359.407 216.57 366.094 183.725L376.514 146.862C383.532 121.184 400.375 85.2346 411.604 146.862C422.833 208.489 433.243 196.8 437.044 183.252C448.156 138.512 466.52 64.3457 475.643 118.033C484.767 171.721 494.504 205.937 500.645 192.704C516.638 158.24 514.314 90.8428 522.576 107.163C526.524 114.961 534.858 167.42 542.753 178.29C549.069 186.985 551.672 158.992 551.087 146.862" stroke="#703970" stroke-width="0.940842"/>
<path d="M272.998 144.698C285.28 114.609 315.035 63.3425 333.09 130.283C340.547 157.93 359.407 214.406 366.094 181.56L376.514 144.698C383.532 119.02 400.375 83.0706 411.604 144.698C422.833 206.325 433.243 194.636 437.044 181.088C448.156 136.348 466.52 62.1816 475.643 115.869C484.767 169.556 494.504 203.773 500.645 190.54C516.638 156.076 514.314 88.6788 522.576 104.999C526.524 112.797 534.858 165.256 542.753 176.126C549.069 184.821 551.672 156.828 551.087 144.698" stroke="#703970" stroke-width="0.940842"/>
<path d="M272.998 141.994C285.28 111.905 315.035 60.6384 333.09 127.579C340.547 155.226 359.407 211.702 366.094 178.856L376.514 141.994C383.532 116.316 400.375 80.3665 411.604 141.994C422.833 203.621 433.243 191.932 437.044 178.384C448.156 133.644 466.52 59.4775 475.643 113.165C484.767 166.852 494.504 201.069 500.645 187.836C516.638 153.372 514.314 85.9747 522.576 102.295C526.524 110.093 534.858 162.552 542.753 173.421C549.069 182.117 551.672 154.124 551.087 141.994" stroke="#703970" stroke-width="0.940842"/>
<path d="M273.871 145.028C286.076 118.151 315.645 72.3568 333.586 132.152C340.996 156.848 359.739 207.296 366.384 177.956L376.738 145.028C383.712 122.091 400.45 89.9791 411.608 145.028C422.766 200.077 433.111 189.636 436.889 177.534C447.931 137.57 466.18 71.3199 475.246 119.277C484.312 167.233 493.989 197.797 500.091 185.977C515.984 155.192 513.674 94.9887 521.885 109.567C525.808 116.533 534.089 163.392 541.935 173.101C548.212 180.869 550.798 155.863 550.217 145.028" stroke="#703970" stroke-width="0.940842"/>
<path d="M273.871 143.99C286.076 119.479 315.645 77.7174 333.586 132.248C340.996 154.769 359.739 200.775 366.384 174.019L376.738 143.99C383.712 123.072 400.45 93.788 411.608 143.99C422.766 194.192 433.111 184.67 436.889 173.634C447.931 137.188 466.18 76.7717 475.246 120.506C484.312 164.24 493.989 192.113 500.091 181.333C515.984 153.259 513.674 98.3565 521.885 111.651C525.808 118.003 534.089 160.737 541.935 169.591C548.212 176.675 550.798 153.871 550.217 143.99" stroke="#703970" stroke-width="0.940842"/>
<path d="M272.998 143.486C285.241 121.004 314.904 82.6984 332.901 132.716C340.335 153.374 359.137 195.572 365.802 171.03L376.189 143.486C383.185 124.3 399.976 97.4391 411.169 143.486C422.363 189.533 432.741 180.8 436.53 170.677C447.607 137.248 465.913 81.831 475.008 121.946C484.103 162.061 493.81 187.627 499.931 177.739C515.874 151.988 513.558 101.629 521.794 113.824C525.729 119.65 534.037 158.847 541.908 166.969C548.204 173.466 550.798 152.55 550.215 143.486" stroke="#703970" stroke-width="0.940842"/>
<path d="M273.871 143.796C286.076 123.512 315.645 88.9503 333.586 134.079C340.996 152.717 359.739 190.791 366.384 168.648L376.738 143.796C383.712 126.485 400.45 102.25 411.608 143.796C422.766 185.343 433.111 177.463 436.889 168.329C447.931 138.168 466.18 88.1677 475.246 124.361C484.312 160.555 493.989 183.622 500.091 174.701C515.984 151.467 513.674 106.031 521.885 117.033C525.808 122.29 534.089 157.656 541.935 164.984C548.212 170.846 550.798 151.974 550.217 143.796" stroke="#703970" stroke-width="0.940842"/>
<path d="M273.871 144.637C286.076 125.873 315.645 93.9041 333.586 135.648C340.996 152.889 359.739 188.107 366.384 167.624L376.738 144.637C383.712 128.624 400.45 106.206 411.608 144.637C422.766 183.067 433.111 175.778 436.889 167.33C447.931 139.43 466.18 93.1802 475.246 126.659C484.312 160.139 493.989 181.476 500.091 173.224C515.984 151.732 513.674 109.704 521.885 119.881C525.808 124.744 534.089 157.457 541.935 164.235C548.212 169.658 550.798 152.201 550.217 144.637" stroke="#703970" stroke-width="0.940842"/>
<path d="M273.871 144.133C286.076 127.398 315.645 98.8851 333.586 136.116C340.996 151.493 359.739 182.904 366.384 164.636L376.738 144.133C383.712 129.852 400.45 109.857 411.608 144.133C422.766 178.409 433.111 171.908 436.889 164.373C447.931 139.49 466.18 98.2395 475.246 128.099C484.312 157.959 493.989 176.99 500.091 169.63C515.984 150.462 513.674 112.977 521.885 122.054C525.808 126.391 534.089 155.567 541.935 161.613C548.212 166.449 550.798 150.88 550.217 144.133" stroke="#703970" stroke-width="0.940842"/>
<path d="M273.871 144.171C286.076 129.464 315.645 104.407 333.586 137.125C340.996 150.638 359.739 178.242 366.384 162.188L376.738 144.171C383.712 131.62 400.45 114.05 411.608 144.171C422.766 174.292 433.111 168.579 436.889 161.957C447.931 140.09 466.18 103.84 475.246 130.08C484.312 156.321 493.989 173.044 500.091 166.577C515.984 149.732 513.674 116.791 521.885 124.767C525.808 128.579 534.089 154.219 541.935 159.531C548.212 163.782 550.798 150.099 550.217 144.171" stroke="#703970" stroke-width="0.940842"/>
<path d="M273.871 144.749C286.076 132.071 315.645 110.47 333.586 138.676C340.996 150.325 359.739 174.121 366.384 160.281L376.738 144.749C383.712 133.93 400.45 118.783 411.608 144.749C422.766 170.716 433.111 165.79 436.889 160.082C447.931 141.231 466.18 109.981 475.246 132.602C484.312 155.223 493.989 169.64 500.091 164.065C515.984 149.543 513.674 121.146 521.885 128.022C525.808 131.308 534.089 153.411 541.935 157.991C548.212 161.655 550.798 149.86 550.217 144.749" stroke="#703970" stroke-width="0.940842"/>
<path d="M272.998 144.518C285.241 134.038 314.904 116.181 332.901 139.498C340.335 149.127 359.137 168.799 365.802 157.358L376.189 144.518C383.185 135.574 399.976 123.053 411.169 144.518C422.363 165.984 432.741 161.912 436.53 157.194C447.607 141.61 465.913 115.777 475.008 134.477C484.103 153.177 493.81 165.095 499.931 160.486C515.874 148.482 513.558 125.006 521.794 130.691C525.729 133.407 534.037 151.679 541.908 155.465C548.204 158.494 550.798 148.743 550.215 144.518" stroke="#703970" stroke-width="0.940842"/>
<path d="M273.871 145.085C286.114 135.957 315.777 120.404 333.775 140.712C341.208 149.099 360.01 166.232 366.675 156.268L377.062 145.085C384.058 137.295 400.849 126.389 412.043 145.085C423.236 163.781 433.614 160.235 437.403 156.125C448.48 142.552 466.786 120.052 475.881 136.339C484.976 152.626 494.683 163.007 500.805 158.992C516.748 148.537 514.431 128.09 522.667 133.042C526.602 135.407 534.91 151.322 542.781 154.619C549.077 157.257 551.671 148.765 551.088 145.085" stroke="#703970" stroke-width="0.940842"/>
<path d="M273.871 145.396C286.114 138.465 315.777 126.657 333.775 142.076C341.208 148.444 360.01 161.453 366.675 153.887L377.062 145.396C384.058 139.481 400.849 131.201 412.043 145.396C423.236 159.591 433.614 156.899 437.403 153.778C448.48 143.473 466.786 126.39 475.881 138.756C484.976 151.122 494.683 159.003 500.805 155.955C516.748 148.017 514.431 132.493 522.667 136.252C526.602 138.048 534.91 150.131 542.781 152.635C549.077 154.638 551.671 148.19 551.088 145.396" stroke="#703970" stroke-width="0.940842"/>
<path d="M272.998 145.434C285.318 140.531 315.167 132.179 333.278 143.085C340.758 147.589 359.678 156.791 366.386 151.439L376.838 145.434C383.878 141.25 400.774 135.393 412.038 145.434C423.303 155.474 433.745 153.569 437.559 151.362C448.705 144.073 467.127 131.99 476.279 140.737C485.431 149.484 495.199 155.058 501.359 152.902C517.402 147.287 515.071 136.307 523.359 138.966C527.319 140.236 535.679 148.783 543.599 150.554C549.935 151.971 552.546 147.41 551.959 145.434" stroke="#703970" stroke-width="0.940842"/>
</g>
<g opacity="0.6" filter="url(#filter10_f_16691_16481)">
<path d="M217.524 134.166C232.506 99.6823 268.805 40.9277 290.829 117.646C299.925 149.332 322.933 214.057 331.09 176.413L343.801 134.166C352.362 104.738 372.909 63.5374 386.607 134.166C400.305 204.795 413.004 191.399 417.641 175.872C431.196 124.597 453.598 39.5972 464.727 101.127C475.857 162.656 487.735 201.87 495.226 186.704C514.736 147.207 511.901 69.9647 521.98 88.6691C526.796 97.606 536.962 157.727 546.593 170.185C554.298 180.151 557.473 148.068 556.76 134.166" stroke="#404AA3" stroke-opacity="0.18" stroke-width="0.940842"/>
<path d="M218.587 135.291C233.475 103.174 269.546 48.4513 291.432 119.905C300.471 149.416 323.335 209.699 331.441 174.639L344.072 135.291C352.579 107.882 372.997 69.5094 386.609 135.291C400.221 201.073 412.841 188.596 417.449 174.135C430.919 126.379 453.18 47.2122 464.24 104.519C475.3 161.826 487.104 198.349 494.548 184.224C513.935 147.437 511.118 75.4956 521.134 92.9163C525.919 101.24 536.022 157.235 545.593 168.838C553.249 178.12 556.404 148.239 555.695 135.291" stroke="#404AA3" stroke-opacity="0.18" stroke-width="0.940842"/>
<path d="M217.524 136.952C232.506 106.863 268.805 55.5964 290.829 122.537C299.925 150.184 322.933 206.66 331.09 173.814L343.801 136.952C352.362 111.274 372.909 75.3245 386.607 136.952C400.305 198.579 413.004 186.89 417.641 173.342C431.196 128.602 453.598 54.4355 464.727 108.123C475.857 161.81 487.735 196.027 495.226 182.794C514.736 148.33 511.901 80.9327 521.98 97.2531C526.796 105.051 536.962 157.51 546.593 168.379C554.298 177.075 557.473 149.082 556.76 136.952" stroke="#404AA3" stroke-opacity="0.18" stroke-width="0.940842"/>
<path d="M217.524 134.788C232.506 104.7 268.805 53.4333 290.829 120.374C299.925 148.021 322.933 204.497 331.09 171.651L343.801 134.788C352.362 109.111 372.909 73.1614 386.607 134.788C400.305 196.416 413.004 184.727 417.641 171.179C431.196 126.439 453.598 52.2724 464.727 105.96C475.857 159.647 487.735 193.863 495.226 180.631C514.736 146.167 511.901 78.7696 521.98 95.09C526.796 102.888 536.962 155.347 546.593 166.216C554.298 174.912 557.473 146.919 556.76 134.788" stroke="#404AA3" stroke-opacity="0.18" stroke-width="0.940842"/>
<path d="M217.524 132.084C232.506 101.995 268.805 50.7292 290.829 117.67C299.925 145.317 322.933 201.793 331.09 168.947L343.801 132.084C352.362 106.406 372.909 70.4573 386.607 132.084C400.305 193.711 413.004 182.022 417.641 168.475C431.196 123.735 453.598 49.5683 464.727 103.256C475.857 156.943 487.735 191.159 495.226 177.927C514.736 143.463 511.901 76.0655 521.98 92.3859C526.796 100.184 536.962 152.642 546.593 163.512C554.298 172.208 557.473 144.214 556.76 132.084" stroke="#404AA3" stroke-opacity="0.18" stroke-width="0.940842"/>
<path d="M218.587 135.118C233.475 108.241 269.546 62.4467 291.432 122.242C300.471 146.938 323.335 197.386 331.441 168.046L344.072 135.118C352.579 112.181 372.997 80.069 386.609 135.118C400.221 190.167 412.841 179.725 417.449 167.624C430.919 127.66 453.18 61.4097 464.24 109.366C475.3 157.323 487.104 187.887 494.548 176.067C513.935 145.282 511.118 85.0785 521.134 99.6569C525.919 106.622 536.022 153.482 545.593 163.191C553.249 170.959 556.404 145.953 555.695 135.118" stroke="#404AA3" stroke-opacity="0.18" stroke-width="0.940842"/>
<path d="M218.587 134.08C233.475 109.569 269.546 67.8072 291.432 122.338C300.471 144.859 323.335 190.865 331.441 164.108L344.072 134.08C352.579 113.162 372.997 83.8778 386.609 134.08C400.221 184.282 412.841 174.76 417.449 163.723C430.919 127.278 453.18 66.8616 464.24 110.596C475.3 154.33 487.104 182.203 494.548 171.423C513.935 143.349 511.118 88.4463 521.134 101.741C525.919 108.093 536.022 150.826 545.593 159.681C553.249 166.765 556.404 143.961 555.695 134.08" stroke="#404AA3" stroke-opacity="0.18" stroke-width="0.940842"/>
<path d="M217.524 133.577C232.459 111.095 268.644 72.7892 290.599 122.807C299.667 143.465 322.603 185.663 330.734 161.121L343.405 133.577C351.94 114.391 372.422 87.5299 386.077 133.577C399.732 179.624 412.391 170.89 417.014 160.768C430.526 127.339 452.858 71.9219 463.952 112.037C475.047 152.151 486.888 177.717 494.356 167.83C513.804 142.079 510.978 91.7203 521.026 103.915C525.826 109.741 535.961 148.938 545.562 157.06C553.243 163.557 556.407 142.641 555.696 133.577" stroke="#404AA3" stroke-opacity="0.18" stroke-width="0.940842"/>
<path d="M218.587 133.887C233.475 113.603 269.546 79.0411 291.432 124.17C300.471 142.808 323.335 180.882 331.441 158.739L344.072 133.887C352.579 116.576 372.997 92.3409 386.609 133.887C400.221 175.434 412.841 167.553 417.449 158.42C430.919 128.259 453.18 78.2585 464.24 114.452C475.3 150.646 487.104 173.713 494.548 164.792C513.935 141.558 511.118 96.1217 521.134 107.124C525.919 112.381 536.022 147.747 545.593 155.075C553.249 160.937 556.404 142.065 555.695 133.887" stroke="#404AA3" stroke-opacity="0.18" stroke-width="0.940842"/>
<path d="M218.587 134.727C233.475 115.963 269.546 83.9939 291.432 125.738C300.471 142.979 323.335 178.197 331.441 157.714L344.072 134.727C352.579 118.714 372.997 96.2963 386.609 134.727C400.221 173.157 412.841 165.868 417.449 157.419C430.919 129.52 453.18 83.27 464.24 116.749C475.3 150.228 487.104 171.566 494.548 163.314C513.935 141.822 511.118 99.7935 521.134 109.971C525.919 114.834 536.022 147.547 545.593 154.325C553.249 159.748 556.404 142.291 555.695 134.727" stroke="#404AA3" stroke-opacity="0.18" stroke-width="0.940842"/>
<path d="M218.587 134.223C233.475 117.488 269.546 88.975 291.432 126.206C300.471 141.583 323.335 172.994 331.441 154.725L344.072 134.223C352.579 119.942 372.997 99.9473 386.609 134.223C400.221 168.499 412.841 161.998 417.449 154.463C430.919 129.579 453.18 88.3293 464.24 118.189C475.3 148.049 487.104 167.079 494.548 159.72C513.935 140.551 511.118 103.066 521.134 112.144C525.919 116.481 536.022 145.657 545.593 151.703C553.249 156.539 556.404 140.97 555.695 134.223" stroke="#404AA3" stroke-opacity="0.18" stroke-width="0.940842"/>
<path d="M218.587 134.261C233.475 119.554 269.546 94.497 291.432 127.215C300.471 140.728 323.335 168.332 331.441 152.278L344.072 134.261C352.579 121.71 372.997 104.139 386.609 134.261C400.221 164.382 412.841 158.668 417.449 152.047C430.919 130.18 453.18 93.9296 464.24 120.17C475.3 146.411 487.104 163.134 494.548 156.667C513.935 139.822 511.118 106.88 521.134 114.857C525.919 118.669 536.022 144.309 545.593 149.621C553.249 153.872 556.404 140.189 555.695 134.261" stroke="#404AA3" stroke-opacity="0.18" stroke-width="0.940842"/>
<path d="M218.587 134.839C233.475 122.161 269.546 100.56 291.432 128.766C300.471 140.415 323.335 164.211 331.441 150.371L344.072 134.839C352.579 124.02 372.997 108.873 386.609 134.839C400.221 160.805 412.841 155.88 417.449 150.172C430.919 131.321 453.18 100.071 464.24 122.692C475.3 145.313 487.104 159.73 494.548 154.155C513.935 139.633 511.118 111.236 521.134 118.112C525.919 121.398 536.022 143.501 545.593 148.081C553.249 151.745 556.404 139.95 555.695 134.839" stroke="#404AA3" stroke-opacity="0.18" stroke-width="0.940842"/>
<path d="M217.524 134.609C232.459 124.129 268.644 106.272 290.599 129.588C299.667 139.218 322.603 158.89 330.734 147.449L343.405 134.609C351.94 125.665 372.422 113.143 386.077 134.609C399.732 156.075 412.391 152.003 417.014 147.284C430.526 131.701 452.858 105.868 463.952 124.568C475.047 143.268 486.888 155.186 494.356 150.577C513.804 138.572 510.978 115.097 521.026 120.782C525.826 123.498 535.961 141.77 545.562 145.556C553.243 148.585 556.407 138.834 555.696 134.609" stroke="#404AA3" stroke-opacity="0.18" stroke-width="0.940842"/>
<path d="M218.587 135.176C233.522 126.048 269.707 110.495 291.662 130.803C300.73 139.19 323.666 156.323 331.797 146.359L344.468 135.176C353.002 127.386 373.485 116.48 387.139 135.176C400.794 153.872 413.454 150.325 418.076 146.215C431.589 132.643 453.92 110.143 465.015 126.43C476.11 142.717 487.951 153.097 495.418 149.083C514.867 138.628 512.041 118.181 522.088 123.132C526.889 125.498 537.023 141.412 546.624 144.71C554.305 147.348 557.47 138.856 556.759 135.176" stroke="#404AA3" stroke-opacity="0.18" stroke-width="0.940842"/>
<path d="M218.587 135.486C233.522 128.555 269.707 116.747 291.662 132.166C300.73 138.534 323.666 151.542 331.797 143.977L344.468 135.486C353.002 129.571 373.485 121.291 387.139 135.486C400.794 149.681 413.454 146.989 418.076 143.868C431.589 133.563 453.92 116.479 465.015 128.846C476.11 141.212 487.951 149.093 495.418 146.045C514.867 138.107 512.041 122.583 522.088 126.342C526.889 128.138 537.023 140.221 546.624 142.725C554.305 144.728 557.47 138.28 556.759 135.486" stroke="#404AA3" stroke-opacity="0.18" stroke-width="0.940842"/>
<path d="M217.524 135.523C232.553 130.621 268.966 122.269 291.059 133.175C300.184 137.679 323.264 146.88 331.446 141.529L344.197 135.523C352.785 131.34 373.396 125.483 387.137 135.523C400.878 145.564 413.617 143.659 418.268 141.452C431.866 134.163 454.338 122.08 465.502 130.827C476.667 139.573 488.582 145.148 496.097 142.992C515.668 137.377 512.824 126.397 522.934 129.056C527.765 130.326 537.963 138.873 547.625 140.644C555.354 142.06 558.539 137.5 557.823 135.523" stroke="#404AA3" stroke-opacity="0.18" stroke-width="0.940842"/>
</g>
<g opacity="0.6" filter="url(#filter11_f_16691_16481)">
<path d="M573.893 156.629C558.911 122.145 522.612 63.3905 500.588 140.109C491.492 171.795 468.484 236.52 460.327 198.876L447.616 156.629C439.055 127.2 418.508 86.0003 404.81 156.629C391.112 227.258 378.413 213.861 373.776 198.335C360.221 147.06 337.819 62.0601 326.69 123.589C315.56 185.119 303.682 224.333 296.191 209.167C276.681 169.669 279.516 92.4276 269.437 111.132C264.621 120.069 254.455 180.19 244.824 192.648C237.119 202.614 233.944 170.531 234.657 156.629" stroke="#A1A5CE" stroke-opacity="0.15" stroke-width="0.940842"/>
<path d="M572.828 157.755C557.94 125.638 521.869 70.9151 499.983 142.369C490.944 171.88 468.08 232.163 459.974 197.103L447.343 157.755C438.836 130.346 418.418 91.9732 404.806 157.755C391.194 223.537 378.574 211.06 373.966 196.598C360.496 148.843 338.235 69.676 327.175 126.983C316.115 184.29 304.311 220.813 296.867 206.688C277.48 169.9 280.297 97.9595 270.281 115.38C265.496 123.704 255.393 179.699 245.822 191.302C238.166 200.584 235.011 170.703 235.72 157.755" stroke="#A1A5CE" stroke-opacity="0.15" stroke-width="0.940842"/>
<path d="M573.893 159.414C558.911 129.326 522.612 78.0593 500.588 145C491.492 172.647 468.484 229.123 460.327 196.277L447.616 159.414C439.055 133.737 418.508 97.7874 404.81 159.414C391.112 221.042 378.413 209.353 373.776 195.805C360.221 151.065 337.819 76.8984 326.69 130.586C315.56 184.273 303.682 218.489 296.191 205.257C276.681 170.793 279.516 103.396 269.437 119.716C264.621 127.514 254.455 179.973 244.824 190.842C237.119 199.538 233.944 171.545 234.657 159.414" stroke="#A1A5CE" stroke-opacity="0.15" stroke-width="0.940842"/>
<path d="M573.893 157.251C558.911 127.162 522.612 75.8962 500.588 142.837C491.492 170.484 468.484 226.96 460.327 194.114L447.616 157.251C439.055 131.573 418.508 95.6243 404.81 157.251C391.112 218.878 378.413 207.189 373.776 193.642C360.221 148.902 337.819 74.7353 326.69 128.423C315.56 182.11 303.682 216.326 296.191 203.094C276.681 168.63 279.516 101.232 269.437 117.553C264.621 125.351 254.455 177.809 244.824 188.679C237.119 197.375 233.944 169.381 234.657 157.251" stroke="#A1A5CE" stroke-opacity="0.15" stroke-width="0.940842"/>
<path d="M573.893 154.547C558.911 124.458 522.612 73.1921 500.588 140.133C491.492 167.78 468.484 224.256 460.327 191.41L447.616 154.547C439.055 128.869 418.508 92.9202 404.81 154.547C391.112 216.174 378.413 204.485 373.776 190.937C360.221 146.198 337.819 72.0312 326.69 125.719C315.56 179.406 303.682 213.622 296.191 200.389C276.681 165.926 279.516 98.5284 269.437 114.849C264.621 122.647 254.455 175.105 244.824 185.975C237.119 194.671 233.944 166.677 234.657 154.547" stroke="#A1A5CE" stroke-opacity="0.15" stroke-width="0.940842"/>
<path d="M572.828 157.581C557.94 130.704 521.869 84.9096 499.983 144.705C490.944 169.401 468.08 219.848 459.974 190.509L447.343 157.581C438.836 134.644 418.418 102.532 404.806 157.581C391.194 212.63 378.574 202.188 373.966 190.087C360.496 150.123 338.235 83.8726 327.175 131.829C316.115 179.786 304.311 210.35 296.867 198.53C277.48 167.745 280.297 107.541 270.281 122.12C265.496 129.085 255.393 175.944 245.822 185.654C238.166 193.422 235.011 168.416 235.72 157.581" stroke="#A1A5CE" stroke-opacity="0.15" stroke-width="0.940842"/>
<path d="M572.828 156.543C557.94 132.032 521.869 90.2701 499.983 144.801C490.944 167.322 468.08 213.328 459.974 186.571L447.343 156.543C438.836 135.625 418.418 106.341 404.806 156.543C391.194 206.744 378.574 197.222 373.966 186.186C360.496 149.741 338.235 89.3245 327.175 133.059C316.115 176.793 304.311 204.665 296.867 193.886C277.48 165.811 280.297 110.909 270.281 124.204C265.496 130.556 255.393 173.289 245.822 182.144C238.166 189.228 235.011 166.424 235.72 156.543" stroke="#A1A5CE" stroke-opacity="0.15" stroke-width="0.940842"/>
<path d="M573.893 156.039C558.958 133.557 522.773 95.2511 500.818 145.269C491.75 165.926 468.814 208.125 460.683 183.583L448.012 156.039C439.477 136.853 418.995 109.992 405.34 156.039C391.685 202.086 379.026 193.352 374.403 183.229C360.891 149.801 338.559 94.3838 327.465 134.499C316.37 174.613 304.529 200.179 297.061 190.292C277.613 164.541 280.439 114.182 270.391 126.377C265.591 132.203 255.456 171.4 245.855 179.522C238.174 186.019 235.01 165.102 235.721 156.039" stroke="#A1A5CE" stroke-opacity="0.15" stroke-width="0.940842"/>
<path d="M572.828 156.35C557.94 136.066 521.869 101.504 499.983 146.633C490.944 165.271 468.08 203.345 459.974 181.201L447.343 156.35C438.836 139.039 418.418 114.804 404.806 156.35C391.194 197.896 378.574 190.016 373.966 180.883C360.496 150.721 338.235 100.721 327.175 136.915C316.115 173.109 304.311 196.176 296.867 187.255C277.48 164.021 280.297 118.585 270.281 129.587C265.496 134.844 255.393 170.21 245.822 177.537C238.166 183.4 235.011 164.528 235.72 156.35" stroke="#A1A5CE" stroke-opacity="0.15" stroke-width="0.940842"/>
<path d="M572.828 157.19C557.94 138.426 521.869 106.457 499.983 148.201C490.944 165.441 468.08 200.659 459.974 180.177L447.343 157.19C438.836 141.177 418.418 118.759 404.806 157.19C391.194 195.62 378.574 188.331 373.966 179.882C360.496 151.983 338.235 105.733 327.175 139.212C316.115 172.691 304.311 194.028 296.867 185.777C277.48 164.285 280.297 122.256 270.281 132.434C265.496 137.296 255.393 170.009 245.822 176.788C238.166 182.211 235.011 164.754 235.72 157.19" stroke="#A1A5CE" stroke-opacity="0.15" stroke-width="0.940842"/>
<path d="M572.828 156.686C557.94 139.951 521.869 111.438 499.983 148.669C490.944 164.046 468.08 195.456 459.974 177.188L447.343 156.686C438.836 142.404 418.418 122.41 404.806 156.686C391.194 190.962 378.574 184.461 373.966 176.925C360.496 152.042 338.235 110.792 327.175 140.652C316.115 170.512 304.311 189.542 296.867 182.182C277.48 163.014 280.297 125.529 270.281 134.606C265.496 138.944 255.393 168.12 245.822 174.166C238.166 179.002 235.011 163.432 235.72 156.686" stroke="#A1A5CE" stroke-opacity="0.15" stroke-width="0.940842"/>
<path d="M572.828 156.723C557.94 142.017 521.869 116.96 499.983 149.678C490.944 163.191 468.08 190.794 459.974 174.741L447.343 156.723C438.836 144.173 418.418 126.602 404.806 156.723C391.194 186.844 378.574 181.131 373.966 174.51C360.496 152.643 338.235 116.393 327.175 142.633C316.115 168.873 304.311 185.597 296.867 179.129C277.48 162.285 280.297 129.343 270.281 137.32C265.496 141.132 255.393 166.771 245.822 172.084C238.166 176.334 235.011 162.652 235.72 156.723" stroke="#A1A5CE" stroke-opacity="0.15" stroke-width="0.940842"/>
<path d="M572.828 157.302C557.94 144.624 521.869 123.023 499.983 151.228C490.944 162.877 468.08 186.673 459.974 172.834L447.343 157.302C438.836 146.482 418.418 131.335 404.806 157.302C391.194 183.268 378.574 178.343 373.966 172.635C360.496 153.784 338.235 122.534 327.175 145.155C316.115 167.776 304.311 182.193 296.867 176.617C277.48 162.096 280.297 133.698 270.281 140.575C265.496 143.861 255.393 165.964 245.822 170.544C238.166 174.208 235.011 162.413 235.72 157.302" stroke="#A1A5CE" stroke-opacity="0.15" stroke-width="0.940842"/>
<path d="M573.893 157.072C558.958 146.592 522.773 128.735 500.818 152.051C491.75 161.681 468.814 181.352 460.683 169.912L448.012 157.072C439.477 148.128 418.995 135.606 405.34 157.072C391.685 178.538 379.026 174.466 374.403 169.747C360.891 154.164 338.559 128.33 327.465 147.031C316.37 165.731 304.529 177.649 297.061 173.04C277.613 161.035 280.439 137.56 270.391 143.244C265.591 145.961 255.456 164.233 245.855 168.019C238.174 171.048 235.01 161.297 235.721 157.072" stroke="#A1A5CE" stroke-opacity="0.15" stroke-width="0.940842"/>
<path d="M572.828 157.638C557.893 148.51 521.708 132.957 499.753 153.265C490.685 161.652 467.749 178.785 459.618 168.821L446.947 157.638C438.413 149.848 417.93 138.942 404.276 157.638C390.621 176.334 377.962 172.787 373.339 168.677C359.826 155.105 337.495 132.605 326.4 148.892C315.305 165.179 303.464 175.559 295.997 171.545C276.548 161.09 279.374 140.643 269.327 145.594C264.526 147.96 254.392 163.874 244.791 167.172C237.11 169.81 233.945 161.318 234.656 157.638" stroke="#A1A5CE" stroke-opacity="0.15" stroke-width="0.940842"/>
<path d="M572.828 157.949C557.893 151.018 521.708 139.21 499.753 154.629C490.685 160.997 467.749 174.005 459.618 166.44L446.947 157.949C438.413 152.034 417.93 143.754 404.276 157.949C390.621 172.144 377.962 169.451 373.339 166.331C359.826 156.026 337.495 138.942 326.4 151.309C315.305 163.675 303.464 171.556 295.997 168.508C276.548 160.57 279.374 145.046 269.327 148.805C264.526 150.601 254.392 162.684 244.791 165.188C237.11 167.191 233.945 160.743 234.656 157.949" stroke="#A1A5CE" stroke-opacity="0.15" stroke-width="0.940842"/>
</g>
</g>
</g>
<defs>
<filter id="filter0_f_16691_16481" x="215.211" y="77.2834" width="360.995" height="152.887" filterUnits="userSpaceOnUse" color-interpolation-filters="sRGB">
<feFlood flood-opacity="0" result="BackgroundImageFix"/>
<feBlend mode="normal" in="SourceGraphic" in2="BackgroundImageFix" result="shape"/>
<feGaussianBlur stdDeviation="0.940842" result="effect1_foregroundBlur_16691_16481"/>
</filter>
<filter id="filter1_f_16691_16481" x="216.736" y="-5.85959" width="366.352" height="328.233" filterUnits="userSpaceOnUse" color-interpolation-filters="sRGB">
<feFlood flood-opacity="0" result="BackgroundImageFix"/>
<feBlend mode="normal" in="SourceGraphic" in2="BackgroundImageFix" result="shape"/>
<feGaussianBlur stdDeviation="47.0421" result="effect1_foregroundBlur_16691_16481"/>
</filter>
<filter id="filter2_f_16691_16481" x="284.126" y="107.014" width="257.657" height="95.2184" filterUnits="userSpaceOnUse" color-interpolation-filters="sRGB">
<feFlood flood-opacity="0" result="BackgroundImageFix"/>
<feBlend mode="normal" in="SourceGraphic" in2="BackgroundImageFix" result="shape"/>
<feGaussianBlur stdDeviation="0.940842" result="effect1_foregroundBlur_16691_16481"/>
</filter>
<filter id="filter3_f_16691_16481" x="214.386" y="133.454" width="370.213" height="40.3565" filterUnits="userSpaceOnUse" color-interpolation-filters="sRGB">
<feFlood flood-opacity="0" result="BackgroundImageFix"/>
<feBlend mode="normal" in="SourceGraphic" in2="BackgroundImageFix" result="shape"/>
<feGaussianBlur stdDeviation="9.55543" result="effect1_foregroundBlur_16691_16481"/>
</filter>
<filter id="filter4_f_16691_16481" x="242.123" y="133.454" width="314.741" height="40.3565" filterUnits="userSpaceOnUse" color-interpolation-filters="sRGB">
<feFlood flood-opacity="0" result="BackgroundImageFix"/>
<feBlend mode="normal" in="SourceGraphic" in2="BackgroundImageFix" result="shape"/>
<feGaussianBlur stdDeviation="9.55543" result="effect1_foregroundBlur_16691_16481"/>
</filter>
<filter id="filter5_f_16691_16481" x="254.863" y="146.194" width="289.26" height="14.8753" filterUnits="userSpaceOnUse" color-interpolation-filters="sRGB">
<feFlood flood-opacity="0" result="BackgroundImageFix"/>
<feBlend mode="normal" in="SourceGraphic" in2="BackgroundImageFix" result="shape"/>
<feGaussianBlur stdDeviation="3.18514" result="effect1_foregroundBlur_16691_16481"/>
</filter>
<filter id="filter6_ddi_16691_16481" x="252.952" y="150.653" width="293.082" height="18.6975" filterUnits="userSpaceOnUse" color-interpolation-filters="sRGB">
<feFlood flood-opacity="0" result="BackgroundImageFix"/>
<feColorMatrix in="SourceAlpha" type="matrix" values="0 0 0 0 0 0 0 0 0 0 0 0 0 0 0 0 0 0 127 0" result="hardAlpha"/>
<feOffset dy="4.14068"/>
<feGaussianBlur stdDeviation="1.59257"/>
<feColorMatrix type="matrix" values="0 0 0 0 0.3 0 0 0 0 0 0 0 0 0 0.26 0 0 0 0.7 0"/>
<feBlend mode="multiply" in2="BackgroundImageFix" result="effect1_dropShadow_16691_16481"/>
<feColorMatrix in="SourceAlpha" type="matrix" values="0 0 0 0 0 0 0 0 0 0 0 0 0 0 0 0 0 0 127 0" result="hardAlpha"/>
<feOffset dy="6.37028"/>
<feGaussianBlur stdDeviation="4.14068"/>
<feColorMatrix type="matrix" values="0 0 0 0 0.6 0 0 0 0 0 0 0 0 0 0.6 0 0 0 1 0"/>
<feBlend mode="color-dodge" in2="effect1_dropShadow_16691_16481" result="effect2_dropShadow_16691_16481"/>
<feBlend mode="normal" in="SourceGraphic" in2="effect2_dropShadow_16691_16481" result="shape"/>
<feColorMatrix in="SourceAlpha" type="matrix" values="0 0 0 0 0 0 0 0 0 0 0 0 0 0 0 0 0 0 127 0" result="hardAlpha"/>
<feOffset dx="-0.414068" dy="0.828137"/>
<feGaussianBlur stdDeviation="0.207034"/>
<feComposite in2="hardAlpha" operator="arithmetic" k2="-1" k3="1"/>
<feColorMatrix type="matrix" values="0 0 0 0 1 0 0 0 0 1 0 0 0 0 1 0 0 0 0.5 0"/>
<feBlend mode="normal" in2="shape" result="effect3_innerShadow_16691_16481"/>
</filter>
<filter id="filter7_f_16691_16481" x="260.596" y="151.927" width="277.794" height="3.40882" filterUnits="userSpaceOnUse" color-interpolation-filters="sRGB">
<feFlood flood-opacity="0" result="BackgroundImageFix"/>
<feBlend mode="normal" in="SourceGraphic" in2="BackgroundImageFix" result="shape"/>
<feGaussianBlur stdDeviation="0.318514" result="effect1_foregroundBlur_16691_16481"/>
</filter>
<filter id="filter8_f_16691_16481" x="260.809" y="152.14" width="277.369" height="2.98414" filterUnits="userSpaceOnUse" color-interpolation-filters="sRGB">
<feFlood flood-opacity="0" result="BackgroundImageFix"/>
<feBlend mode="normal" in="SourceGraphic" in2="BackgroundImageFix" result="shape"/>
<feGaussianBlur stdDeviation="0.212343" result="effect1_foregroundBlur_16691_16481"/>
</filter>
<filter id="filter9_f_16691_16481" x="253.738" y="70.2584" width="317.589" height="148.91" filterUnits="userSpaceOnUse" color-interpolation-filters="sRGB">
<feFlood flood-opacity="0" result="BackgroundImageFix"/>
<feBlend mode="normal" in="SourceGraphic" in2="BackgroundImageFix" result="shape"/>
<feGaussianBlur stdDeviation="9.40842" result="effect1_foregroundBlur_16691_16481"/>
</filter>
<filter id="filter10_f_16691_16481" x="198.276" y="60.3482" width="378.933" height="148.909" filterUnits="userSpaceOnUse" color-interpolation-filters="sRGB">
<feFlood flood-opacity="0" result="BackgroundImageFix"/>
<feBlend mode="normal" in="SourceGraphic" in2="BackgroundImageFix" result="shape"/>
<feGaussianBlur stdDeviation="9.40842" result="effect1_foregroundBlur_16691_16481"/>
</filter>
<filter id="filter11_f_16691_16481" x="229.384" y="96.9237" width="349.644" height="120.684" filterUnits="userSpaceOnUse" color-interpolation-filters="sRGB">
<feFlood flood-opacity="0" result="BackgroundImageFix"/>
<feBlend mode="normal" in="SourceGraphic" in2="BackgroundImageFix" result="shape"/>
<feGaussianBlur stdDeviation="2.3521" result="effect1_foregroundBlur_16691_16481"/>
</filter>
<linearGradient id="paint0_linear_16691_16481" x1="5.58657" y1="263.682" x2="614.808" y2="22.1289" gradientUnits="userSpaceOnUse">
<stop stop-color="#4534B8"/>
<stop offset="0.380208" stop-color="#4534B7"/>
</linearGradient>
<linearGradient id="paint1_linear_16691_16481" x1="399.07" y1="87.5635" x2="399.07" y2="221.021" gradientUnits="userSpaceOnUse">
<stop stop-color="#B44FB4" stop-opacity="0.21"/>
<stop offset="1" stop-color="#B80F74" stop-opacity="0.13"/>
</linearGradient>
<linearGradient id="paint2_linear_16691_16481" x1="399.063" y1="92.1875" x2="399.063" y2="217.717" gradientUnits="userSpaceOnUse">
<stop stop-color="#B44FB4" stop-opacity="0.21"/>
<stop offset="1" stop-color="#B80F74" stop-opacity="0.13"/>
</linearGradient>
<linearGradient id="paint3_linear_16691_16481" x1="399.07" y1="98.1338" x2="399.07" y2="215.074" gradientUnits="userSpaceOnUse">
<stop stop-color="#B44FB4" stop-opacity="0.21"/>
<stop offset="1" stop-color="#B80F74" stop-opacity="0.13"/>
</linearGradient>
<linearGradient id="paint4_linear_16691_16481" x1="399.061" y1="95.4912" x2="399.061" y2="213.092" gradientUnits="userSpaceOnUse">
<stop stop-color="#B44FB4" stop-opacity="0.21"/>
<stop offset="1" stop-color="#B80F74" stop-opacity="0.13"/>
</linearGradient>
<linearGradient id="paint5_linear_16691_16481" x1="399.061" y1="92.1875" x2="399.061" y2="209.789" gradientUnits="userSpaceOnUse">
<stop stop-color="#B44FB4" stop-opacity="0.21"/>
<stop offset="1" stop-color="#B80F74" stop-opacity="0.13"/>
</linearGradient>
<linearGradient id="paint6_linear_16691_16481" x1="399.063" y1="102.099" x2="399.063" y2="207.147" gradientUnits="userSpaceOnUse">
<stop stop-color="#B44FB4" stop-opacity="0.21"/>
<stop offset="1" stop-color="#B80F74" stop-opacity="0.13"/>
</linearGradient>
<linearGradient id="paint7_linear_16691_16481" x1="399.063" y1="105.401" x2="399.063" y2="201.2" gradientUnits="userSpaceOnUse">
<stop stop-color="#B44FB4" stop-opacity="0.21"/>
<stop offset="1" stop-color="#B80F74" stop-opacity="0.13"/>
</linearGradient>
<linearGradient id="paint8_linear_16691_16481" x1="398.629" y1="108.705" x2="398.629" y2="196.576" gradientUnits="userSpaceOnUse">
<stop stop-color="#B44FB4" stop-opacity="0.21"/>
<stop offset="1" stop-color="#B80F74" stop-opacity="0.13"/>
</linearGradient>
<linearGradient id="paint9_linear_16691_16481" x1="399.063" y1="113.33" x2="399.063" y2="192.612" gradientUnits="userSpaceOnUse">
<stop stop-color="#B44FB4" stop-opacity="0.21"/>
<stop offset="1" stop-color="#B80F74" stop-opacity="0.13"/>
</linearGradient>
<linearGradient id="paint10_linear_16691_16481" x1="399.063" y1="117.294" x2="399.063" y2="190.629" gradientUnits="userSpaceOnUse">
<stop stop-color="#B44FB4" stop-opacity="0.21"/>
<stop offset="1" stop-color="#B80F74" stop-opacity="0.13"/>
</linearGradient>
<linearGradient id="paint11_linear_16691_16481" x1="399.063" y1="120.597" x2="399.063" y2="186.004" gradientUnits="userSpaceOnUse">
<stop stop-color="#B44FB4" stop-opacity="0.21"/>
<stop offset="1" stop-color="#B80F74" stop-opacity="0.13"/>
</linearGradient>
<linearGradient id="paint12_linear_16691_16481" x1="399.063" y1="124.561" x2="399.063" y2="182.04" gradientUnits="userSpaceOnUse">
<stop stop-color="#B44FB4" stop-opacity="0.21"/>
<stop offset="1" stop-color="#B80F74" stop-opacity="0.13"/>
</linearGradient>
<linearGradient id="paint13_linear_16691_16481" x1="399.063" y1="129.187" x2="399.063" y2="178.738" gradientUnits="userSpaceOnUse">
<stop stop-color="#B44FB4" stop-opacity="0.21"/>
<stop offset="1" stop-color="#B80F74" stop-opacity="0.13"/>
</linearGradient>
<linearGradient id="paint14_linear_16691_16481" x1="398.629" y1="133.15" x2="398.629" y2="174.113" gradientUnits="userSpaceOnUse">
<stop stop-color="#B44FB4" stop-opacity="0.21"/>
<stop offset="1" stop-color="#B80F74" stop-opacity="0.13"/>
</linearGradient>
<linearGradient id="paint15_linear_16691_16481" x1="399.495" y1="136.453" x2="399.495" y2="172.13" gradientUnits="userSpaceOnUse">
<stop stop-color="#B44FB4" stop-opacity="0.21"/>
<stop offset="1" stop-color="#B80F74" stop-opacity="0.13"/>
</linearGradient>
<linearGradient id="paint16_linear_16691_16481" x1="399.495" y1="141.078" x2="399.495" y2="168.166" gradientUnits="userSpaceOnUse">
<stop stop-color="#B44FB4" stop-opacity="0.21"/>
<stop offset="1" stop-color="#B80F74" stop-opacity="0.13"/>
</linearGradient>
<linearGradient id="paint17_linear_16691_16481" x1="399.493" y1="145.043" x2="399.493" y2="164.203" gradientUnits="userSpaceOnUse">
<stop stop-color="#B44FB4" stop-opacity="0.21"/>
<stop offset="1" stop-color="#B80F74" stop-opacity="0.13"/>
</linearGradient>
<clipPath id="clip0_16691_16481">
<rect x="0.5" width="607" height="263.682" rx="14.1574" fill="white"/>
</clipPath>
</defs>
</svg>
