<svg width="24" height="25" viewBox="0 0 24 25" fill="none" xmlns="http://www.w3.org/2000/svg">
<path d="M9.5001 2.02344C9.08444 2.02344 8.71212 2.28057 8.56491 2.66929L8.33532 3.27557C7.84314 3.22639 7.38967 3.1773 7.02258 3.13609C6.74817 3.10528 6.52259 3.07892 6.3659 3.06031L6.18515 3.03862L6.12377 3.03111C5.57568 2.96325 5.07556 3.35245 5.00768 3.90054C4.93981 4.44864 5.32911 4.94798 5.87721 5.01586L5.944 5.02403L6.12998 5.04635C6.29032 5.06539 6.52019 5.09225 6.79942 5.1236C7.35738 5.18625 8.11468 5.26712 8.90922 5.33963C9.981 5.43745 11.1558 5.52344 12.0001 5.52344C12.8444 5.52344 14.0192 5.43745 15.091 5.33963C15.8855 5.26712 16.6428 5.18625 17.2008 5.1236C17.48 5.09225 17.7099 5.06539 17.8702 5.04635L18.0562 5.02403L18.1229 5.01587C18.671 4.948 19.0604 4.44864 18.9925 3.90054C18.9247 3.35245 18.4253 2.96315 17.8772 3.03102L17.8151 3.03862L17.6343 3.06031C17.4776 3.07892 17.252 3.10528 16.9776 3.13609C16.6105 3.1773 16.1571 3.22639 15.6649 3.27557L15.4353 2.66929C15.2881 2.28057 14.9158 2.02344 14.5001 2.02344H9.5001Z" fill="#D50000"/>
<path d="M11.0001 12.0234C11.0001 11.4712 10.5524 11.0234 10.0001 11.0234C9.44782 11.0234 9.0001 11.4712 9.0001 12.0234V17.0234C9.0001 17.5757 9.44782 18.0234 10.0001 18.0234C10.5524 18.0234 11.0001 17.5757 11.0001 17.0234V12.0234Z" fill="#D50000"/>
<path d="M14.0001 11.0234C14.5524 11.0234 15.0001 11.4712 15.0001 12.0234V17.0234C15.0001 17.5757 14.5524 18.0234 14.0001 18.0234C13.4478 18.0234 13.0001 17.5757 13.0001 17.0234V12.0234C13.0001 11.4712 13.4478 11.0234 14.0001 11.0234Z" fill="#D50000"/>
<path fill-rule="evenodd" clip-rule="evenodd" d="M18.9098 8.324C19.0004 7.05523 17.9065 6.03807 16.6634 6.18174C15.3914 6.32874 13.4284 6.52344 12.0001 6.52344C10.5718 6.52344 8.60884 6.32874 7.33681 6.18174C6.09368 6.03807 4.99983 7.05523 5.09045 8.324L5.94719 20.3183C6.01213 21.2275 6.68937 21.9962 7.61875 22.136C8.61535 22.2859 10.444 22.5252 12.0013 22.5234C13.5393 22.5217 15.3755 22.2833 16.3765 22.1348C17.3074 21.9967 17.9881 21.2274 18.0532 20.3155L18.9098 8.324ZM16.893 8.16851C16.8965 8.16811 16.8991 8.16835 16.8991 8.16835L16.9018 8.16895C16.904 8.16972 16.9075 8.17154 16.9109 8.17481C16.9132 8.17697 16.9149 8.17961 16.9149 8.17961L16.9148 8.1815L16.0592 20.16C15.0685 20.3064 13.3706 20.5219 11.9989 20.5234C10.6124 20.525 8.92497 20.3093 7.94112 20.162L7.08537 8.1815L7.0853 8.17961C7.0853 8.17961 7.087 8.17697 7.08928 8.17481C7.09272 8.17154 7.09621 8.16972 7.09843 8.16895L7.10108 8.16835C7.10108 8.16835 7.10374 8.16811 7.1072 8.16851C8.38149 8.31578 10.4456 8.52344 12.0001 8.52344C13.5547 8.52344 15.6187 8.31578 16.893 8.16851Z" fill="#D50000"/>
</svg>
