<svg width="41" height="41" viewBox="0 0 41 41" fill="none" xmlns="http://www.w3.org/2000/svg">
<circle cx="20.6667" cy="20.2734" r="20" fill="#367EE8"/>
<g clip-path="url(#clip0_12775_66834)">
<path d="M28.6613 15.4469C28.6735 15.6242 28.6735 15.8015 28.6735 15.9804C28.6735 21.4322 24.5312 27.7198 16.9569 27.7198V27.7165C14.7194 27.7198 12.5284 27.0777 10.6448 25.8669C10.9701 25.9061 11.2971 25.9257 11.6249 25.9265C13.4791 25.9281 15.2804 25.3048 16.7392 24.1569C14.9771 24.1234 13.4319 22.9723 12.8921 21.2917C13.5093 21.411 14.1453 21.3865 14.7512 21.2206C12.8301 20.8317 11.448 19.1406 11.448 17.1765C11.448 17.1585 11.448 17.1414 11.448 17.1242C12.0204 17.4437 12.6613 17.621 13.3169 17.6406C11.5075 16.429 10.9497 14.0172 12.0424 12.1316C14.1331 14.7092 17.2178 16.2762 20.5292 16.442C20.1973 15.009 20.6507 13.5074 21.7205 12.5C23.3791 10.9379 25.9876 11.018 27.5466 12.679C28.4689 12.4968 29.3528 12.1577 30.1617 11.6773C29.8543 12.6324 29.2109 13.4437 28.3514 13.9592C29.1677 13.8628 29.9651 13.6438 30.7161 13.3097C30.1633 14.1397 29.4669 14.8628 28.6613 15.4469Z" fill="white"/>
</g>
<defs>
<clipPath id="clip0_12775_66834">
<rect width="20.2222" height="16.6667" fill="white" transform="translate(10.5632 11.2578)"/>
</clipPath>
</defs>
</svg>
