<svg width="41" height="41" viewBox="0 0 41 41" fill="none" xmlns="http://www.w3.org/2000/svg">
<circle cx="20.3335" cy="20.2734" r="20" fill="#2A2A2A"/>
<path fill-rule="evenodd" clip-rule="evenodd" d="M26.2502 26.2388C26.7419 25.4888 26.9252 25.1055 27.3002 24.2638C24.5336 23.2138 24.0919 19.2721 26.8252 17.7638C25.9919 16.7138 24.8169 16.1055 23.7086 16.1055C22.9086 16.1055 22.3585 16.3138 21.8669 16.5055C21.4502 16.6638 21.0752 16.8055 20.6086 16.8055C20.1086 16.8055 19.6669 16.6471 19.2002 16.4805C18.6919 16.2971 18.1585 16.1055 17.4919 16.1055C16.2502 16.1055 14.9252 16.8638 14.0836 18.1638C12.9002 19.9971 13.1086 23.4305 15.0169 26.3638C15.7002 27.4138 16.6169 28.5888 17.8086 28.6055C18.3086 28.6138 18.6336 28.4638 18.9919 28.3055C19.4002 28.1221 19.8419 27.9221 20.6169 27.9221C21.3919 27.9138 21.8252 28.1221 22.2336 28.3055C22.5836 28.4638 22.9002 28.6138 23.3919 28.6055C24.6002 28.5888 25.5669 27.2888 26.2502 26.2388Z" fill="white"/>
<path fill-rule="evenodd" clip-rule="evenodd" d="M23.5334 11.9414C23.6667 12.8581 23.2917 13.7664 22.8 14.3997C22.275 15.0831 21.3584 15.6164 20.475 15.5831C20.3167 14.6997 20.725 13.7914 21.225 13.1831C21.7834 12.5164 22.725 11.9997 23.5334 11.9414Z" fill="white"/>
</svg>
